  0
SECTION
  2
HEADER
  9
$ACADVER
  1
AC1015
  9
$ACADMAINTVER
 70
     6
  9
$DWGCODEPAGE
  3
ANSI_1252
  9
$INSBASE
 10
0.0
 20
0.0
 30
0.0
  9
$EXTMIN
 10
-13.8298605987
 20
-7.0078236164
 30
0.0
  9
$EXTMAX
 10
13.8298605987
 20
10.1828236164
 30
0.0
  9
$LIMMIN
 10
0.0
 20
0.0
  9
$LIMMAX
 10
420.0
 20
297.0
  9
$ORTHOMODE
 70
     0
  9
$REGENMODE
 70
     1
  9
$FILLMODE
 70
     1
  9
$QTEXTMODE
 70
     0
  9
$MIRRTEXT
 70
     1
  9
$LTSCALE
 40
1.0
  9
$ATTMODE
 70
     1
  9
$TEXTSIZE
 40
3.5
  9
$TRACEWID
 40
1.0
  9
$TEXTSTYLE
  7
Standard
  9
$CLAYER
  8
0
  9
$CELTYPE
  6
ByLayer
  9
$CECOLOR
 62
   256
  9
$CELTSCALE
 40
1.0
  9
$DISPSILH
 70
     0
  9
$DIMSCALE
 40
1.0
  9
$DIMASZ
 40
3.556
  9
$DIMEXO
 40
0.0
  9
$DIMDLI
 40
3.75
  9
$DIMRND
 40
0.0
  9
$DIMDLE
 40
0.0
  9
$DIMEXE
 40
1.0
  9
$DIMTP
 40
0.0
  9
$DIMTM
 40
0.0
  9
$DIMTXT
 40
3.5
  9
$DIMCEN
 40
2.5
  9
$DIMTSZ
 40
0.0
  9
$DIMTOL
 70
     0
  9
$DIMLIM
 70
     0
  9
$DIMTIH
 70
     1
  9
$DIMTOH
 70
     1
  9
$DIMSE1
 70
     0
  9
$DIMSE2
 70
     0
  9
$DIMTAD
 70
     1
  9
$DIMZIN
 70
     1
  9
$DIMBLK
  1

  9
$DIMASO
 70
     1
  9
$DIMSHO
 70
     1
  9
$DIMPOST
  1

  9
$DIMAPOST
  1

  9
$DIMALT
 70
     0
  9
$DIMALTD
 70
     3
  9
$DIMALTF
 40
0.0393700787
  9
$DIMLFAC
 40
1.0
  9
$DIMTOFL
 70
     1
  9
$DIMTVP
 40
0.0
  9
$DIMTIX
 70
     0
  9
$DIMSOXD
 70
     0
  9
$DIMSAH
 70
     0
  9
$DIMBLK1
  1

  9
$DIMBLK2
  1

  9
$DIMSTYLE
  2
ISO-25
  9
$DIMCLRD
 70
     0
  9
$DIMCLRE
 70
     0
  9
$DIMCLRT
 70
     0
  9
$DIMTFAC
 40
1.0
  9
$DIMGAP
 40
1.524
  9
$DIMJUST
 70
     0
  9
$DIMSD1
 70
     0
  9
$DIMSD2
 70
     0
  9
$DIMTOLJ
 70
     0
  9
$DIMTZIN
 70
     1
  9
$DIMALTZ
 70
     0
  9
$DIMALTTZ
 70
     0
  9
$DIMUPT
 70
     0
  9
$DIMDEC
 70
     2
  9
$DIMTDEC
 70
     2
  9
$DIMALTU
 70
     2
  9
$DIMALTTD
 70
     3
  9
$DIMTXSTY
  7
Standard
  9
$DIMAUNIT
 70
     0
  9
$DIMADEC
 70
     2
  9
$DIMALTRND
 40
0.0
  9
$DIMAZIN
 70
     0
  9
$DIMDSEP
 70
    44
  9
$DIMATFIT
 70
     3
  9
$DIMFRAC
 70
     0
  9
$DIMLDRBLK
  1

  9
$DIMLUNIT
 70
     2
  9
$DIMLWD
 70
    -2
  9
$DIMLWE
 70
    -2
  9
$DIMTMOVE
 70
     0
  9
$LUNITS
 70
     2
  9
$LUPREC
 70
     6
  9
$SKETCHINC
 40
1.0
  9
$FILLETRAD
 40
0.0
  9
$AUNITS
 70
     0
  9
$AUPREC
 70
     2
  9
$MENU
  1
.
  9
$ELEVATION
 40
0.0
  9
$PELEVATION
 40
0.0
  9
$THICKNESS
 40
0.0
  9
$LIMCHECK
 70
     0
  9
$CHAMFERA
 40
0.0
  9
$CHAMFERB
 40
0.0
  9
$CHAMFERC
 40
0.0
  9
$CHAMFERD
 40
0.0
  9
$SKPOLY
 70
     0
  9
$TDCREATE
 40
2460631.610602616
  9
$TDUCREATE
 40
2460631.818935949
  9
$TDUPDATE
 40
2460631.610652315
  9
$TDUUPDATE
 40
2460631.818985648
  9
$TDINDWG
 40
0.0000000116
  9
$TDUSRTIMER
 40
0.0000000116
  9
$USRTIMER
 70
     1
  9
$ANGBASE
 50
0.0
  9
$ANGDIR
 70
     0
  9
$PDMODE
 70
     0
  9
$PDSIZE
 40
-1.0
  9
$PLINEWID
 40
0.0
  9
$SPLFRAME
 70
     0
  9
$SPLINETYPE
 70
     6
  9
$SPLINESEGS
 70
     8
  9
$HANDSEED
  5
F4
  9
$SURFTAB1
 70
     6
  9
$SURFTAB2
 70
     6
  9
$SURFTYPE
 70
     6
  9
$SURFU
 70
     6
  9
$SURFV
 70
     6
  9
$UCSBASE
  2

  9
$UCSNAME
  2

  9
$UCSORG
 10
0.0
 20
0.0
 30
0.0
  9
$UCSXDIR
 10
1.0
 20
0.0
 30
0.0
  9
$UCSYDIR
 10
0.0
 20
1.0
 30
0.0
  9
$UCSORTHOREF
  2

  9
$UCSORTHOVIEW
 70
     0
  9
$UCSORGTOP
 10
0.0
 20
0.0
 30
0.0
  9
$UCSORGBOTTOM
 10
0.0
 20
0.0
 30
0.0
  9
$UCSORGLEFT
 10
0.0
 20
0.0
 30
0.0
  9
$UCSORGRIGHT
 10
0.0
 20
0.0
 30
0.0
  9
$UCSORGFRONT
 10
0.0
 20
0.0
 30
0.0
  9
$UCSORGBACK
 10
0.0
 20
0.0
 30
0.0
  9
$PUCSBASE
  2

  9
$PUCSNAME
  2

  9
$PUCSORG
 10
0.0
 20
0.0
 30
0.0
  9
$PUCSXDIR
 10
1.0
 20
0.0
 30
0.0
  9
$PUCSYDIR
 10
0.0
 20
1.0
 30
0.0
  9
$PUCSORTHOREF
  2

  9
$PUCSORTHOVIEW
 70
     0
  9
$PUCSORGTOP
 10
0.0
 20
0.0
 30
0.0
  9
$PUCSORGBOTTOM
 10
0.0
 20
0.0
 30
0.0
  9
$PUCSORGLEFT
 10
0.0
 20
0.0
 30
0.0
  9
$PUCSORGRIGHT
 10
0.0
 20
0.0
 30
0.0
  9
$PUCSORGFRONT
 10
0.0
 20
0.0
 30
0.0
  9
$PUCSORGBACK
 10
0.0
 20
0.0
 30
0.0
  9
$USERI1
 70
     0
  9
$USERI2
 70
     0
  9
$USERI3
 70
     0
  9
$USERI4
 70
     0
  9
$USERI5
 70
     0
  9
$USERR1
 40
0.0
  9
$USERR2
 40
0.0
  9
$USERR3
 40
0.0
  9
$USERR4
 40
0.0
  9
$USERR5
 40
0.0
  9
$WORLDVIEW
 70
     1
  9
$SHADEDGE
 70
     3
  9
$SHADEDIF
 70
    70
  9
$TILEMODE
 70
     1
  9
$MAXACTVP
 70
    64
  9
$PINSBASE
 10
0.0
 20
0.0
 30
0.0
  9
$PLIMCHECK
 70
     0
  9
$PEXTMIN
 10
1.0000000000E+20
 20
1.0000000000E+20
 30
1.0000000000E+20
  9
$PEXTMAX
 10
-1.0000000000E+20
 20
-1.0000000000E+20
 30
-1.0000000000E+20
  9
$PLIMMIN
 10
0.0
 20
0.0
  9
$PLIMMAX
 10
420.0
 20
297.0
  9
$UNITMODE
 70
     0
  9
$VISRETAIN
 70
     1
  9
$PLINEGEN
 70
     0
  9
$PSLTSCALE
 70
     1
  9
$TREEDEPTH
 70
  3020
  9
$CMLSTYLE
  2
Standard
  9
$CMLJUST
 70
     0
  9
$CMLSCALE
 40
20.0
  9
$PROXYGRAPHICS
 70
     1
  9
$MEASUREMENT
 70
     1
  9
$CELWEIGHT
370
    -1
  9
$ENDCAPS
280
     0
  9
$JOINSTYLE
280
     0
  9
$LWDISPLAY
290
     1
  9
$INSUNITS
 70
     4
  9
$HYPERLINKBASE
  1

  9
$STYLESHEET
  1

  9
$XEDIT
290
     1
  9
$CEPSNTYPE
380
     0
  9
$PSTYLEMODE
290
     1
  9
$FINGERPRINTGUID
  2
{14472900-9c17-4e3b-ae82-99c77c7325b0}
  9
$VERSIONGUID
  2
{FAEB1C32-E019-11D5-929B-00C0DF256EC4}
  9
$EXTNAMES
290
     1
  9
$PSVPSCALE
 40
0.0
  9
$OLESTARTUP
290
     0
  0
ENDSEC
  0
SECTION
  2
CLASSES
  0
CLASS
  1
ACDBDICTIONARYWDFLT
  2
AcDbDictionaryWithDefault
  3
ObjectDBX Classes
 90
        0
280
     0
281
     0
  0
CLASS
  1
VISUALSTYLE
  2
AcDbVisualStyle
  3
ObjectDBX Classes
 90
     4095
280
     0
281
     0
  0
CLASS
  1
MATERIAL
  2
AcDbMaterial
  3
ObjectDBX Classes
 90
     1153
280
     0
281
     0
  0
CLASS
  1
SCALE
  2
AcDbScale
  3
ObjectDBX Classes
 90
     1153
280
     0
281
     0
  0
CLASS
  1
TABLESTYLE
  2
AcDbTableStyle
  3
ObjectDBX Classes
 90
     4095
280
     0
281
     0
  0
CLASS
  1
MLEADERSTYLE
  2
AcDbMLeaderStyle
  3
ACDB_MLEADERSTYLE_CLASS
 90
     4095
280
     0
281
     0
  0
CLASS
  1
SUN
  2
AcDbSun
  3
SCENEOE
 90
     1153
280
     0
281
     0
  0
CLASS
  1
ACDBPLACEHOLDER
  2
AcDbPlaceHolder
  3
ObjectDBX Classes
 90
        0
280
     0
281
     0
  0
CLASS
  1
LAYOUT
  2
AcDbLayout
  3
ObjectDBX Classes
 90
        0
280
     0
281
     0
  0
ENDSEC
  0
SECTION
  2
TABLES
  0
TABLE
  2
VPORT
  5
8
330
0
100
AcDbSymbolTable
 70
     1
  0
VPORT
  5
29
330
8
100
AcDbSymbolTableRecord
100
AcDbViewportTableRecord
  2
*Active
 70
     0
 10
0.0
 20
0.0
 11
1.0
 21
1.0
 12
0.0
 22
1.5875
 13
0.0
 23
0.0
 14
10.0
 24
10.0
 15
10.0
 25
10.0
 16
0.0
 26
0.0
 36
1.0
 17
0.0
 27
0.0
 37
0.0
 40
17.5344601774
 41
1.6089982432
 42
50.0
 43
0.0
 44
0.0
 50
0.0
 51
0.0
 71
     0
 72
   100
 73
     1
 74
     3
 75
     0
 76
     0
 77
     0
 78
     0
281
     0
 65
     1
110
0.0
120
0.0
130
0.0
111
1.0
121
0.0
131
0.0
112
0.0
122
1.0
132
0.0
 79
     0
146
0.0
  0
ENDTAB
  0
TABLE
  2
LTYPE
  5
5
330
0
100
AcDbSymbolTable
 70
     6
  0
LTYPE
  5
14
330
5
100
AcDbSymbolTableRecord
100
AcDbLinetypeTableRecord
  2
ByBlock
 70
     0
  3

 72
    65
 73
     0
 40
0.0
  0
LTYPE
  5
15
330
5
100
AcDbSymbolTableRecord
100
AcDbLinetypeTableRecord
  2
ByLayer
 70
     0
  3

 72
    65
 73
     0
 40
0.0
  0
LTYPE
  5
16
330
5
100
AcDbSymbolTableRecord
100
AcDbLinetypeTableRecord
  2
Continuous
 70
     0
  3
Solid line
 72
    65
 73
     0
 40
0.0
  0
LTYPE
  5
5E
330
5
100
AcDbSymbolTableRecord
100
AcDbLinetypeTableRecord
  2
HIDDEN
 70
     0
  3
Hidden __ __ __ __ __ __ __ __ __ __ __ __ __ __
 72
    65
 73
     2
 40
1.905
 49
1.27
 74
     0
 49
-0.635
 74
     0
  0
LTYPE
  5
5F
330
5
100
AcDbSymbolTableRecord
100
AcDbLinetypeTableRecord
  2
PHANTOM
 70
     0
  3
Phantom ______  __  __  ______  __  __  ______
 72
    65
 73
     6
 40
12.7
 49
6.35
 74
     0
 49
-1.27
 74
     0
 49
1.27
 74
     0
 49
-1.27
 74
     0
 49
1.27
 74
     0
 49
-1.27
 74
     0
  0
LTYPE
  5
60
330
5
100
AcDbSymbolTableRecord
100
AcDbLinetypeTableRecord
  2
CENTER
 70
     0
  3
Center ____ _ ____ _ ____ _ ____ _ ____ _ ____
 72
    65
 73
     4
 40
10.16
 49
6.35
 74
     0
 49
-1.27
 74
     0
 49
1.27
 74
     0
 49
-1.27
 74
     0
  0
LTYPE
  5
61
330
5
100
AcDbSymbolTableRecord
100
AcDbLinetypeTableRecord
  2
CENTERX2
 70
     0
  3
Center (2x) ________  __  ________  __  _____
 72
    65
 73
     4
 40
20.32
 49
12.7
 74
     0
 49
-2.54
 74
     0
 49
2.54
 74
     0
 49
-2.54
 74
     0
  0
LTYPE
  5
62
330
5
100
AcDbSymbolTableRecord
100
AcDbLinetypeTableRecord
  2
DOT2
 70
     0
  3
Dot (.5x) ........................................
 72
    65
 73
     2
 40
0.635
 49
0.0
 74
     0
 49
-0.635
 74
     0
  0
ENDTAB
  0
TABLE
  2
LAYER
  5
2
330
0
100
AcDbSymbolTable
 70
     1
  0
LAYER
  5
10
330
2
100
AcDbSymbolTableRecord
100
AcDbLayerTableRecord
  2
0
 70
     0
 62
     7
  6
Continuous
370
    -3
390
F
  0
ENDTAB
  0
TABLE
  2
STYLE
  5
3
330
0
100
AcDbSymbolTable
 70
     2
  0
STYLE
  5
11
330
3
100
AcDbSymbolTableRecord
100
AcDbTextStyleTableRecord
  2
Standard
 70
     0
 40
0.0
 41
1.0
 50
0.0
 71
     0
 42
3.5
  3
txt
  4

  0
STYLE
  5
F0
330
3
100
AcDbSymbolTableRecord
100
AcDbTextStyleTableRecord
  2
SLDTEXTSTYLE0
 70
     0
 40
0.0
 41
0.7
 50
0.0
 71
     0
 42
3.5
  3
TXT
  4

  0
ENDTAB
  0
TABLE
  2
VIEW
  5
6
330
0
100
AcDbSymbolTable
 70
     0
  0
ENDTAB
  0
TABLE
  2
UCS
  5
7
330
0
100
AcDbSymbolTable
 70
     0
  0
ENDTAB
  0
TABLE
  2
APPID
  5
9
330
0
100
AcDbSymbolTable
 70
     1
  0
APPID
  5
12
330
9
100
AcDbSymbolTableRecord
100
AcDbRegAppTableRecord
  2
ACAD
 70
     0
  0
ENDTAB
  0
TABLE
  2
DIMSTYLE
  5
A
330
0
100
AcDbSymbolTable
 70
     1
100
AcDbDimStyleTable
  0
DIMSTYLE
105
27
330
A
100
AcDbSymbolTableRecord
100
AcDbDimStyleTableRecord
  2
ISO-25
 70
     0
 41
2.5
 42
0.625
 43
3.75
 44
1.25
 73
     0
 74
     0
 77
     1
 78
     8
140
2.5
141
2.5
143
0.0393700787
147
0.625
171
     3
172
     1
178
     0
271
     2
272
     2
274
     3
278
    44
283
     0
284
     8
340
11
  0
ENDTAB
  0
TABLE
  2
BLOCK_RECORD
  5
1
330
0
100
AcDbSymbolTable
 70
     1
  0
BLOCK_RECORD
  5
1F
330
1
100
AcDbSymbolTableRecord
100
AcDbBlockTableRecord
  2
*Model_Space
340
22
  0
BLOCK_RECORD
  5
1B
330
1
100
AcDbSymbolTableRecord
100
AcDbBlockTableRecord
  2
*Paper_Space
340
1E
  0
BLOCK_RECORD
  5
23
330
1
100
AcDbSymbolTableRecord
100
AcDbBlockTableRecord
  2
*Paper_Space0
340
26
  0
ENDTAB
  0
ENDSEC
  0
SECTION
  2
BLOCKS
  0
BLOCK
  5
20
330
1F
100
AcDbEntity
  8
0
100
AcDbBlockBegin
  2
*Model_Space
 70
     0
 10
0.0
 20
0.0
 30
0.0
  3
*Model_Space
  1

  0
ENDBLK
  5
21
330
1F
100
AcDbEntity
  8
0
100
AcDbBlockEnd
  0
BLOCK
  5
1C
330
1B
100
AcDbEntity
 67
     1
  8
0
100
AcDbBlockBegin
  2
*Paper_Space
 70
     0
 10
0.0
 20
0.0
 30
0.0
  3
*Paper_Space
  1

  0
ENDBLK
  5
1D
330
1B
100
AcDbEntity
 67
     1
  8
0
100
AcDbBlockEnd
  0
BLOCK
  5
24
330
23
100
AcDbEntity
  8
0
100
AcDbBlockBegin
  2
*Paper_Space0
 70
     0
 10
0.0
 20
0.0
 30
0.0
  3
*Paper_Space0
  1

  0
ENDBLK
  5
25
330
23
100
AcDbEntity
  8
0
100
AcDbBlockEnd
  0
ENDSEC
  0
SECTION
  2
ENTITIES
  0
SPLINE
  5
74
330
1F
100
AcDbEntity
  8
0
  6
Continuous
 62
     7
370
    25
100
AcDbSpline
210
0.0
220
0.0
230
1.0
 70
     8
 71
     3
 72
    11
 73
     7
 74
     0
 42
0.00000001
 43
0.00000001
 40
0.0
 40
0.0
 40
0.0
 40
0.0
 40
0.3139718439371399
 40
0.580604375535033
 40
0.8087663557939018
 40
1.0
 40
1.0
 40
1.0
 40
1.0
 10
8.21476883561644
 20
0.8549122431506875
 30
0.0
 10
8.235462933339168
 20
0.8236245834481275
 30
0.0
 10
8.273730962519421
 20
0.765766681619216
 30
0.0
 10
8.316180386363154
 20
0.6790831067479718
 30
0.0
 10
8.345055966934572
 20
0.6016585177293907
 30
0.0
 10
8.348922082158658
 20
0.5515581124026787
 30
0.0
 10
8.350684931506853
 20
0.5287136130137013
 30
0.0
  0
SPLINE
  5
75
330
1F
100
AcDbEntity
  8
0
  6
Continuous
 62
     7
370
    25
100
AcDbSpline
210
0.0
220
0.0
230
1.0
 70
     8
 71
     3
 72
    15
 73
    11
 74
     0
 42
0.00000001
 43
0.00000001
 40
0.0
 40
0.0
 40
0.0
 40
0.0
 40
0.1160729613822797
 40
0.2320705681793238
 40
0.3535387626125624
 40
0.4866549390185779
 40
0.6207061941881573
 40
0.749385024498733
 40
0.8729231243699226
 40
1.0
 40
1.0
 40
1.0
 40
1.0
 10
8.350684931506851
 20
0.5287136130137011
 30
0.0
 10
8.348745232660525
 20
0.4953303817817763
 30
0.0
 10
8.344867094220671
 20
0.4285855917170224
 30
0.0
 10
8.308180654828154
 20
0.3325750270489471
 30
0.0
 10
8.250656468032632
 20
0.2427408862857956
 30
0.0
 10
8.174520838836035
 20
0.1606193243644191
 30
0.0
 10
8.084623190795892
 20
0.0905960895619298
 30
0.0
 10
7.986554292723692
 20
0.0379514939219179
 30
0.0
 10
7.881372420366347
 20
0.0066169583409477
 30
0.0
 10
7.809490157446392
 20
0.002226318597089
 30
0.0
 10
7.773041523972605
 20
0.0000000000000026
 30
0.0
  0
SPLINE
  5
76
330
1F
100
AcDbEntity
  8
0
  6
Continuous
 62
     7
370
    25
100
AcDbSpline
210
0.0
220
0.0
230
1.0
 70
     8
 71
     3
 72
    11
 73
     7
 74
     0
 42
0.00000001
 43
0.00000001
 40
0.0
 40
0.0
 40
0.0
 40
0.0
 40
0.232858361595893
 40
0.4666286732694503
 40
0.7176095940375337
 40
1.0
 40
1.0
 40
1.0
 40
1.0
 10
7.773041523972605
 20
0.0000000000000026
 30
0.0
 10
7.741322045018891
 20
0.0021447290481974
 30
0.0
 10
7.677758863179382
 20
0.0064425866102905
 30
0.0
 10
7.588507190988175
 20
0.0488595718723375
 30
0.0
 10
7.504155440225103
 20
0.1108535210924686
 30
0.0
 10
7.459573343125337
 20
0.1681187508257092
 30
0.0
 10
7.435969606164385
 20
0.1984375000000027
 30
0.0
  0
SPLINE
  5
7A
330
1F
100
AcDbEntity
  8
0
  6
Continuous
 62
     7
370
    25
100
AcDbSpline
210
0.0
220
0.0
230
1.0
 70
     8
 71
     3
 72
    15
 73
    11
 74
     0
 42
0.00000001
 43
0.00000001
 40
0.0
 40
0.0
 40
0.0
 40
0.0
 40
0.1535831200672872
 40
0.2934962497269956
 40
0.4234781629680253
 40
0.5429652271845491
 40
0.6584056001391461
 40
0.7709418157513618
 40
0.8828645672305636
 40
1.0
 40
1.0
 40
1.0
 40
1.0
 10
5.796821489726029
 20
0.5844392123287695
 30
0.0
 10
5.776048553153889
 20
0.5381900341459187
 30
0.0
 10
5.736351619160951
 20
0.4498081836946755
 30
0.0
 10
5.663682977449449
 20
0.3300420529755009
 30
0.0
 10
5.5838060122629
 20
0.22895723628182
 30
0.0
 10
5.496570784456456
 20
0.1455745830689196
 30
0.0
 10
5.402787152120407
 20
0.078410648584726
 30
0.0
 10
5.299085561263656
 20
0.0342253465132731
 30
0.0
 10
5.189484683417517
 20
0.0052687052228433
 30
0.0
 10
5.113806974506613
 20
0.0017826789290016
 30
0.0
 10
5.075107020547946
 20
0.0000000000000026
 30
0.0
  0
SPLINE
  5
7B
330
1F
100
AcDbEntity
  8
0
  6
Continuous
 62
     7
370
    25
100
AcDbSpline
210
0.0
220
0.0
230
1.0
 70
     8
 71
     3
 72
    15
 73
    11
 74
     0
 42
0.00000001
 43
0.00000001
 40
0.0
 40
0.0
 40
0.0
 40
0.0
 40
0.1361486409862783
 40
0.2658286090098793
 40
0.3924327250383682
 40
0.5190368410668579
 40
0.6442599473698001
 40
0.7632650110023906
 40
0.8795105425131926
 40
1.0
 40
1.0
 40
1.0
 40
1.0
 10
5.075107020547946
 20
0.0000000000000026
 30
0.0
 10
5.043742250412114
 20
0.0017481977348766
 30
0.0
 10
4.982502908199631
 20
0.0051615331069326
 30
0.0
 10
4.893854612376273
 20
0.0265795682430708
 30
0.0
 10
4.814240882757078
 20
0.0658811563679575
 30
0.0
 10
4.74312460584154
 20
0.117141309188199
 30
0.0
 10
4.68488964796892
 20
0.1806429811940309
 30
0.0
 10
4.642170254878037
 20
0.2523585910447323
 30
0.0
 10
4.6142517906738
 20
0.3305515422483847
 30
0.0
 10
4.611615664488838
 20
0.3853132325231062
 30
0.0
 10
4.610273972602741
 20
0.4131849315068519
 30
0.0
  0
SPLINE
  5
7C
330
1F
100
AcDbEntity
  8
0
  6
Continuous
 62
     7
370
    25
100
AcDbSpline
210
0.0
220
0.0
230
1.0
 70
     8
 71
     3
 72
    11
 73
     7
 74
     0
 42
0.00000001
 43
0.00000001
 40
0.0
 40
0.0
 40
0.0
 40
0.0
 40
0.2160302939141192
 40
0.4579346477813629
 40
0.7132684644435778
 40
1.0
 40
1.0
 40
1.0
 40
1.0
 10
4.610273972602741
 20
0.4131849315068519
 30
0.0
 10
4.610928930355092
 20
0.4359229978138561
 30
0.0
 10
4.612317290488297
 20
0.4841224803811795
 30
0.0
 10
4.629265624087901
 20
0.5574041203031852
 30
0.0
 10
4.650263486348778
 20
0.637100053919769
 30
0.0
 10
4.672111770125476
 20
0.689774335474131
 30
0.0
 10
4.683668664383563
 20
0.7176369863013724
 30
0.0
  0
SPLINE
  5
80
330
1F
100
AcDbEntity
  8
0
  6
Continuous
 62
     7
370
    25
100
AcDbSpline
210
0.0
220
0.0
230
1.0
 70
     8
 71
     3
 72
    15
 73
    11
 74
     0
 42
0.00000001
 43
0.00000001
 40
0.0
 40
0.0
 40
0.0
 40
0.0
 40
0.1462644493888702
 40
0.2810985909370468
 40
0.4067059682971061
 40
0.526791125202446
 40
0.6412744303107075
 40
0.7568920357013903
 40
0.8751742790870051
 40
1.0
 40
1.0
 40
1.0
 40
1.0
 10
6.764544092465755
 20
5.754687500000002
 30
0.0
 10
6.782603889503148
 20
5.795047808974598
 30
0.0
 10
6.817312142404187
 20
5.872614340212678
 30
0.0
 10
6.88305571077233
 20
5.976960010322554
 30
0.0
 10
6.95722178841175
 20
6.065118280018727
 30
0.0
 10
7.038443876368262
 20
6.138345552384764
 30
0.0
 10
7.12940836663172
 20
6.193177964615606
 30
0.0
 10
7.226294082301892
 20
6.23535970386221
 30
0.0
 10
7.332996858211295
 20
6.2581799087528
 30
0.0
 10
7.406423221010376
 20
6.261373779996886
 30
0.0
 10
7.44412457191781
 20
6.26301369863014
 30
0.0
  0
SPLINE
  5
81
330
1F
100
AcDbEntity
  8
0
  6
Continuous
 62
     7
370
    25
100
AcDbSpline
210
0.0
220
0.0
230
1.0
 70
     8
 71
     3
 72
    15
 73
    11
 74
     0
 42
0.00000001
 43
0.00000001
 40
0.0
 40
0.0
 40
0.0
 40
0.0
 40
0.131610018253646
 40
0.2579425573206572
 40
0.3811642272595965
 40
0.5111593375043159
 40
0.6389836253793078
 40
0.7582593877319596
 40
0.8778525945354084
 40
1.0
 40
1.0
 40
1.0
 40
1.0
 10
7.44412457191781
 20
6.263013698630139
 30
0.0
 10
7.475564288180005
 20
6.261548688806906
 30
0.0
 10
7.53718300780116
 20
6.258677415135502
 30
0.0
 10
7.625189231301728
 20
6.233092377967613
 30
0.0
 10
7.706801701669892
 20
6.192839804222239
 30
0.0
 10
7.77843453015333
 20
6.136034187107402
 30
0.0
 10
7.839409149637778
 20
6.069362306461606
 30
0.0
 10
7.884781478391448
 20
5.993906723052727
 30
0.0
 10
7.911461982898564
 20
5.91094295632904
 30
0.0
 10
7.914312903258051
 20
5.853187536700317
 30
0.0
 10
7.915753424657538
 20
5.824004708904113
 30
0.0
  0
SPLINE
  5
82
330
1F
100
AcDbEntity
  8
0
  6
Continuous
 62
     7
370
    25
100
AcDbSpline
210
0.0
220
0.0
230
1.0
 70
     8
 71
     3
 72
    11
 73
     7
 74
     0
 42
0.00000001
 43
0.00000001
 40
0.0
 40
0.0
 40
0.0
 40
0.0
 40
0.2154209238137615
 40
0.4555130610182387
 40
0.7134312428883746
 40
1.0
 40
1.0
 40
1.0
 40
1.0
 10
7.915753424657536
 20
5.824004708904112
 30
0.0
 10
7.915082734021557
 20
5.800369043730639
 30
0.0
 10
7.913664541493261
 20
5.750390824336883
 30
0.0
 10
7.896979505522716
 20
5.673729249150276
 30
0.0
 10
7.874080734828063
 20
5.590855578379529
 30
0.0
 10
7.852406782991102
 20
5.535234799778952
 30
0.0
 10
7.840999571917809
 20
5.505961044520551
 30
0.0
  0
SPLINE
  5
86
330
1F
100
AcDbEntity
  8
0
  6
Continuous
 62
     7
370
    25
100
AcDbSpline
210
0.0
220
0.0
230
1.0
 70
     8
 71
     3
 72
    11
 73
     7
 74
     0
 42
0.00000001
 43
0.00000001
 40
0.0
 40
0.0
 40
0.0
 40
0.0
 40
0.3069444260813176
 40
0.5724921850398639
 40
0.8013201415169111
 40
1.0
 40
1.0
 40
1.0
 40
1.0
 10
7.615378852739727
 20
3.242958047945208
 30
0.0
 10
7.666335874460378
 20
3.278495989322735
 30
0.0
 10
7.76137749838044
 20
3.344778977324116
 30
0.0
 10
7.904502929684457
 20
3.421401643536333
 30
0.0
 10
8.03788044632763
 20
3.468699471068113
 30
0.0
 10
8.124311798489876
 20
3.476040422940858
 30
0.0
 10
8.164479880136987
 20
3.479452054794523
 30
0.0
  0
SPLINE
  5
87
330
1F
100
AcDbEntity
  8
0
  6
Continuous
 62
     7
370
    25
100
AcDbSpline
210
0.0
220
0.0
230
1.0
 70
     8
 71
     3
 72
    15
 73
    11
 74
     0
 42
0.00000001
 43
0.00000001
 40
0.0
 40
0.0
 40
0.0
 40
0.0
 40
0.1346489543625619
 40
0.2595546415750873
 40
0.3830506896872573
 40
0.5093502838938198
 40
0.6338660054739221
 40
0.7539924003166306
 40
0.8732084873036114
 40
1.0
 40
1.0
 40
1.0
 40
1.0
 10
8.164479880136987
 20
3.479452054794523
 30
0.0
 10
8.195463109529145
 20
3.477960081261509
 30
0.0
 10
8.255187606000659
 20
3.475084094162803
 30
0.0
 10
8.340440470025817
 20
3.450664682638827
 30
0.0
 10
8.41821186749112
 20
3.412558041052489
 30
0.0
 10
8.485447491877085
 20
3.35788714457341
 30
0.0
 10
8.54108230364624
 20
3.292870493783783
 30
0.0
 10
8.58341227976368
 20
3.220067252303491
 30
0.0
 10
8.60696875664435
 20
3.138355671464498
 30
0.0
 10
8.610053809473238
 20
3.08181591787463
 30
0.0
 10
8.611643835616439
 20
3.052675513698633
 30
0.0
  0
SPLINE
  5
88
330
1F
100
AcDbEntity
  8
0
  6
Continuous
 62
     7
370
    25
100
AcDbSpline
210
0.0
220
0.0
230
1.0
 70
     8
 71
     3
 72
    15
 73
    11
 74
     0
 42
0.00000001
 43
0.00000001
 40
0.0
 40
0.0
 40
0.0
 40
0.0
 40
0.1130201340801959
 40
0.2239593545018215
 40
0.337996824160539
 40
0.4559472777885826
 40
0.5788116178607786
 40
0.7087298842120245
 40
0.8497179068658146
 40
1.0
 40
1.0
 40
1.0
 40
1.0
 10
8.611643835616439
 20
3.052675513698633
 30
0.0
 10
8.610474030447737
 20
3.027248213274705
 30
0.0
 10
8.608155958428021
 20
2.976861776946237
 30
0.0
 10
8.593236571648976
 20
2.901820007205895
 30
0.0
 10
8.564829544123933
 20
2.82982043809057
 30
0.0
 10
8.528595005830317
 20
2.758420726919027
 30
0.0
 10
8.479695409145435
 20
2.690540977874289
 30
0.0
 10
8.422346268502647
 20
2.622830263798799
 30
0.0
 10
8.352634828217653
 20
2.558281922887307
 30
0.0
 10
8.301140593800381
 20
2.517711281689634
 30
0.0
 10
8.27457191780822
 20
2.496778681506852
 30
0.0
  0
SPLINE
  5
8B
330
1F
100
AcDbEntity
  8
0
  6
Continuous
 62
     7
370
    25
100
AcDbSpline
210
0.0
220
0.0
230
1.0
 70
     8
 71
     3
 72
    15
 73
    11
 74
     0
 42
0.00000001
 43
0.00000001
 40
0.0
 40
0.0
 40
0.0
 40
0.0
 40
0.1447080055090875
 40
0.2798648791849234
 40
0.4055768641109878
 40
0.5237592351852222
 40
0.6403336079169227
 40
0.7553218608540159
 40
0.873741394637236
 40
0.9999999999999999
 40
0.9999999999999999
 40
0.9999999999999999
 40
0.9999999999999999
 10
1.927290239726028
 20
1.043835616438358
 30
0.0
 10
1.956337430496354
 20
1.044472463463551
 30
0.0
 10
2.012514616457832
 20
1.045704123834643
 30
0.0
 10
2.093084287634971
 20
1.059234861312077
 30
0.0
 10
2.165713064139331
 20
1.082461862231477
 30
0.0
 10
2.231147384220794
 20
1.113936194661904
 30
0.0
 10
2.28842656507173
 20
1.155023390951028
 30
0.0
 10
2.338478323589797
 20
1.204703672251071
 30
0.0
 10
2.379820577809356
 20
1.264388078141285
 30
0.0
 10
2.400487179077863
 20
1.308971724455332
 30
0.0
 10
2.411151541095891
 20
1.331977739726029
 30
0.0
  0
SPLINE
  5
8D
330
1F
100
AcDbEntity
  8
0
  6
Continuous
 62
     7
370
    25
100
AcDbSpline
210
0.0
220
0.0
230
1.0
 70
     8
 71
     3
 72
     9
 73
     5
 74
     0
 42
0.00000001
 43
0.00000001
 40
0.0
 40
0.0
 40
0.0
 40
0.0
 40
0.5622797239019898
 40
1.0
 40
1.0
 40
1.0
 40
1.0
 10
2.721040239726028
 20
2.076797945205481
 30
0.0
 10
2.739555333530721
 20
2.121007070962123
 30
0.0
 10
2.77248395076096
 20
2.199631861928884
 30
0.0
 10
2.780188991344183
 20
2.284359787036781
 30
0.0
 10
2.783561643835617
 20
2.321446917808221
 30
0.0
  0
SPLINE
  5
8E
330
1F
100
AcDbEntity
  8
0
  6
Continuous
 62
     7
370
    25
100
AcDbSpline
210
0.0
220
0.0
230
1.0
 70
     8
 71
     3
 72
    15
 73
    11
 74
     0
 42
0.00000001
 43
0.00000001
 40
0.0
 40
0.0
 40
0.0
 40
0.0
 40
0.1013229312910073
 40
0.2044010092359538
 40
0.3155454529548163
 40
0.4404685813693383
 40
0.5742438883854328
 40
0.710477244065977
 40
0.8505196359541253
 40
1.0
 40
1.0
 40
1.0
 40
1.0
 10
2.783561643835617
 20
2.321446917808221
 30
0.0
 10
2.78171432632913
 20
2.340174920155499
 30
0.0
 10
2.777987691520069
 20
2.37795533700667
 30
0.0
 10
2.75581853234685
 20
2.4333991868794
 30
0.0
 10
2.713357203391479
 20
2.48066753436372
 30
0.0
 10
2.661130729237318
 20
2.525169887843836
 30
0.0
 10
2.597874373802464
 20
2.562857908576022
 30
0.0
 10
2.526557198826777
 20
2.589837367443149
 30
0.0
 10
2.449089621002151
 20
2.606795263748468
 30
0.0
 10
2.395385687642998
 20
2.608637761171105
 30
0.0
 10
2.367658390410959
 20
2.609589041095892
 30
0.0
  0
SPLINE
  5
8F
330
1F
100
AcDbEntity
  8
0
  6
Continuous
 62
     7
370
    25
100
AcDbSpline
210
0.0
220
0.0
230
1.0
 70
     8
 71
     3
 72
    19
 73
    15
 74
     0
 42
0.00000001
 43
0.00000001
 40
0.0
 40
0.0
 40
0.0
 40
0.0
 40
0.0523088764986181
 40
0.1056443702348979
 40
0.1599609953508745
 40
0.2160686514635118
 40
0.2765772233420868
 40
0.3402315384929799
 40
0.4081423264272675
 40
0.4808131155714586
 40
0.6239431122825073
 40
0.7553857404577451
 40
0.8789418602823108
 40
1.0
 40
1.0
 40
1.0
 40
1.0
 10
2.367658390410959
 20
2.609589041095892
 30
0.0
 10
2.339473265143124
 20
2.608637095715486
 30
0.0
 10
2.282549851599902
 20
2.606714522015901
 30
0.0
 10
2.198134465125069
 20
2.587864308998136
 30
0.0
 10
2.114628296833266
 20
2.559291529030287
 30
0.0
 10
2.03176370617952
 20
2.518827139241576
 30
0.0
 10
1.949492875029032
 20
2.467179200974138
 30
0.0
 10
1.867219767282976
 20
2.404311583803896
 30
0.0
 10
1.787446215850282
 20
2.328516929329369
 30
0.0
 10
1.68276606711175
 20
2.217333621397953
 30
0.0
 10
1.569704265895859
 20
2.067474441343058
 30
0.0
 10
1.468308310601687
 20
1.878036793919279
 30
0.0
 10
1.404012666187238
 20
1.684006720650098
 30
0.0
 10
1.395830250629329
 20
1.55216819161219
 30
0.0
 10
1.391780821917808
 20
1.486922089041097
 30
0.0
  0
SPLINE
  5
90
330
1F
100
AcDbEntity
  8
0
  6
Continuous
 62
     7
370
    25
100
AcDbSpline
210
0.0
220
0.0
230
1.0
 70
     8
 71
     3
 72
    15
 73
    11
 74
     0
 42
0.00000001
 43
0.00000001
 40
0.0
 40
0.0
 40
0.0
 40
0.0
 40
0.1479616613933395
 40
0.2809313231581498
 40
0.3992904493396373
 40
0.5088574065452915
 40
0.619299197962019
 40
0.7339822276659594
 40
0.859791305633201
 40
1.0
 40
1.0
 40
1.0
 40
1.0
 10
1.391780821917808
 20
1.486922089041097
 30
0.0
 10
1.393084859498073
 20
1.452402540389691
 30
0.0
 10
1.395560804951929
 20
1.386861086028202
 30
0.0
 10
1.413855301519952
 20
1.295050920638956
 30
0.0
 10
1.446191924554119
 20
1.21653516796174
 30
0.0
 10
1.494374843859497
 20
1.152977016692135
 30
0.0
 10
1.555442335412758
 20
1.103269152963628
 30
0.0
 10
1.629647695329958
 20
1.067069572466406
 30
0.0
 10
1.71696756017246
 20
1.047301982038842
 30
0.0
 10
1.779043496277323
 20
1.045032029362875
 30
0.0
 10
1.811761558219178
 20
1.043835616438358
 30
0.0
  0
SPLINE
  5
93
330
1F
100
AcDbEntity
  8
0
  6
Continuous
 62
     7
370
    25
100
AcDbSpline
210
0.0
220
0.0
230
1.0
 70
     8
 71
     3
 72
    15
 73
    11
 74
     0
 42
0.00000001
 43
0.00000001
 40
0.0
 40
0.0
 40
0.0
 40
0.0
 40
0.1617768301132634
 40
0.3045621543489417
 40
0.4320414887171561
 40
0.5449482550314986
 40
0.6518142551533589
 40
0.7584682894464568
 40
0.872769429147352
 40
1.0
 40
1.0
 40
1.0
 40
1.0
 10
3.982341609589041
 20
1.043835616438358
 30
0.0
 10
4.024523490329834
 20
1.042506372817313
 30
0.0
 10
4.103935384257484
 20
1.040003929787639
 30
0.0
 10
4.215864045640402
 20
1.022335915913585
 30
0.0
 10
4.310084338858711
 20
0.9878804763020863
 30
0.0
 10
4.390079049644615
 20
0.9436206105512582
 30
0.0
 10
4.449857436659651
 20
0.8813594403328839
 30
0.0
 10
4.493210245632806
 20
0.8069304000909417
 30
0.0
 10
4.519708088895137
 20
0.7189163330243926
 30
0.0
 10
4.522052641710585
 20
0.6557628138897468
 30
0.0
 10
4.523287671232877
 20
0.622495719178084
 30
0.0
  0
SPLINE
  5
94
330
1F
100
AcDbEntity
  8
0
  6
Continuous
 62
     7
370
    25
100
AcDbSpline
210
0.0
220
0.0
230
1.0
 70
     8
 71
     3
 72
    15
 73
    11
 74
     0
 42
0.00000001
 43
0.00000001
 40
0.0
 40
0.0
 40
0.0
 40
0.0
 40
0.1275083824656213
 40
0.2445149603028648
 40
0.3572766163059082
 40
0.4717984674661352
 40
0.5902603987466233
 40
0.7142106804135511
 40
0.8502390019684073
 40
1.0
 40
1.0
 40
1.0
 40
1.0
 10
4.523287671232877
 20
0.622495719178084
 30
0.0
 10
4.521148494322111
 20
0.5760375780173083
 30
0.0
 10
4.517046326705342
 20
0.4869476662639788
 30
0.0
 10
4.479807699949556
 20
0.3607488309340017
 30
0.0
 10
4.414988920116416
 20
0.2523542196169429
 30
0.0
 10
4.328365393385111
 20
0.159655608928781
 30
0.0
 10
4.219008486145928
 20
0.0877125022888214
 30
0.0
 10
4.090939916699965
 20
0.0349962332590156
 30
0.0
 10
3.94372033960699
 20
0.0063205036233021
 30
0.0
 10
3.839747650073194
 20
0.0021732619456349
 30
0.0
 10
3.785263270547946
 20
0.0000000000000017
 30
0.0
  0
SPLINE
  5
96
330
1F
100
AcDbEntity
  8
0
  6
Continuous
 62
     7
370
    25
100
AcDbSpline
210
0.0
220
0.0
230
1.0
 70
     8
 71
     3
 72
    11
 73
     7
 74
     0
 42
0.00000001
 43
0.00000001
 40
0.0
 40
0.0
 40
0.0
 40
0.0
 40
0.2930888031361496
 40
0.5522429284259104
 40
0.7837350812677145
 40
1.0
 40
1.0
 40
1.0
 40
1.0
 10
2.661237157534247
 20
0.3289169520547964
 30
0.0
 10
2.606185844715027
 20
0.2787746128760111
 30
0.0
 10
2.502457220899757
 20
0.1842955610326202
 30
0.0
 10
2.331358648376437
 20
0.0822367375177551
 30
0.0
 10
2.164050291851081
 20
0.0122558133518482
 30
0.0
 10
2.050225309891474
 20
0.0039915884070547
 30
0.0
 10
1.995248287671233
 20
0.0000000000000017
 30
0.0
  0
SPLINE
  5
98
330
1F
100
AcDbEntity
  8
0
  6
Continuous
 62
     7
370
    25
100
AcDbSpline
210
0.0
220
0.0
230
1.0
 70
     8
 71
     3
 72
    23
 73
    19
 74
     0
 42
0.00000001
 43
0.00000001
 40
0.0
 40
0.0
 40
0.0
 40
0.0
 40
0.0649300685389314
 40
0.1268272664871578
 40
0.1869927306669909
 40
0.2456443018407893
 40
0.3036643730605877
 40
0.3613991159288014
 40
0.4206325835560278
 40
0.4806161954969078
 40
0.5415119822488692
 40
0.6028028357824466
 40
0.6643295117573023
 40
0.7270746560377602
 40
0.7916004409387203
 40
0.857724690087917
 40
0.9272355626125871
 40
1.0
 40
1.0
 40
1.0
 40
1.0
 10
1.473330479452055
 20
0.0000000000000017
 30
0.0
 10
1.432039432770041
 20
0.0009681704635318
 30
0.0
 10
1.351386035986185
 20
0.0028592883407519
 30
0.0
 10
1.233537506006774
 20
0.0198915346273068
 30
0.0
 10
1.121447252944243
 20
0.0461241242606107
 30
0.0
 10
1.016402741528029
 20
0.0868035871183046
 30
0.0
 10
0.9164978037437265
 20
0.1351850697524322
 30
0.0
 10
0.8228741284584425
 20
0.1958286931427449
 30
0.0
 10
0.7364876500673435
 20
0.2681374514408117
 30
0.0
 10
0.6557216144575294
 20
0.3495895558321676
 30
0.0
 10
0.5844572313947597
 20
0.4410696164017726
 30
0.0
 10
0.5197719724880704
 20
0.5385066664904657
 30
0.0
 10
0.4669501683842261
 20
0.6442369364651505
 30
0.0
 10
0.4232078759756758
 20
0.7561465596174285
 30
0.0
 10
0.3896347938511918
 20
0.8745475998274236
 30
0.0
 10
0.3644723024252494
 20
0.9994242197778463
 30
0.0
 10
0.3516910555500716
 20
1.131462769506016
 30
0.0
 10
0.3492127138184881
 20
1.221863277234064
 30
0.0
 10
0.3479452054794526
 20
1.268097174657536
 30
0.0
  0
SPLINE
  5
99
330
1F
100
AcDbEntity
  8
0
  6
Continuous
 62
     7
370
    25
100
AcDbSpline
210
0.0
220
0.0
230
1.0
 70
     8
 71
     3
 72
    23
 73
    19
 74
     0
 42
0.00000001
 43
0.00000001
 40
0.0
 40
0.0
 40
0.0
 40
0.0
 40
0.0648995914374025
 40
0.1282599069545112
 40
0.1914660094239712
 40
0.2542897346602466
 40
0.3177154431410238
 40
0.3821020074060477
 40
0.4480523520369599
 40
0.5165376720850996
 40
0.5844289817246965
 40
0.6486664857200306
 40
0.7101226222599504
 40
0.7698686168695406
 40
0.8276062846575272
 40
0.8848104808716092
 40
0.9421353293604406
 40
1.0
 40
1.0
 40
1.0
 40
1.0
 10
0.3479452054794526
 20
1.268097174657536
 30
0.0
 10
0.3497074890093347
 20
1.338875296669755
 30
0.0
 10
0.3531902585701903
 20
1.478752838926058
 30
0.0
 10
0.383036056077478
 20
1.68578185139447
 30
0.0
 10
0.4301224271058541
 20
1.887049330962353
 30
0.0
 10
0.497276052504334
 20
2.082766533000211
 30
0.0
 10
0.5838040600908447
 20
2.271963482102194
 30
0.0
 10
0.6867134419357345
 20
2.4568078237196
 30
0.0
 10
0.8123860489784342
 20
2.63378653984832
 30
0.0
 10
0.9527470326352825
 20
2.804169190163688
 30
0.0
 10
1.105517152742805
 20
2.960979195846369
 30
0.0
 10
1.26478191637232
 20
3.099956105712366
 30
0.0
 10
1.430823782972348
 20
3.215767469753495
 30
0.0
 10
1.600002435316864
 20
3.313624145825077
 30
0.0
 10
1.776135106491446
 20
3.387271378744197
 30
0.0
 10
1.956416913418732
 20
3.440977110930057
 30
0.0
 10
2.142268769948797
 20
3.472871928536295
 30
0.0
 10
2.26786741855885
 20
3.47725183739898
 30
0.0
 10
2.330961044520548
 20
3.479452054794522
 30
0.0
  0
SPLINE
  5
9A
330
1F
100
AcDbEntity
  8
0
  6
Continuous
 62
     7
370
    25
100
AcDbSpline
210
0.0
220
0.0
230
1.0
 70
     8
 71
     3
 72
    15
 73
    11
 74
     0
 42
0.00000001
 43
0.00000001
 40
0.0
 40
0.0
 40
0.0
 40
0.0
 40
0.1484686464047374
 40
0.2877288012428117
 40
0.4192482216333744
 40
0.5433233946797332
 40
0.6613896282787088
 40
0.7754048607594336
 40
0.8879198865502027
 40
1.0
 40
1.0
 40
1.0
 40
1.0
 10
2.330961044520548
 20
3.479452054794522
 30
0.0
 10
2.378101024012365
 20
3.478286594579676
 30
0.0
 10
2.469457213472165
 20
3.476027959651467
 30
0.0
 10
2.602204123408011
 20
3.462118840675887
 30
0.0
 10
2.72445595233968
 20
3.433596581364896
 30
0.0
 10
2.83857836908812
 20
3.400104215641314
 30
0.0
 10
2.941044884460334
 20
3.351249541346324
 30
0.0
 10
3.034528399736872
 20
3.294105411097444
 30
0.0
 10
3.11878720685645
 20
3.226336785859077
 30
0.0
 10
3.16535353279235
 20
3.172142920380934
 30
0.0
 10
3.188591609589041
 20
3.145098458904111
 30
0.0
  0
SPLINE
  5
9B
330
1F
100
AcDbEntity
  8
0
  6
Continuous
 62
     7
370
    25
100
AcDbSpline
210
0.0
220
0.0
230
1.0
 70
     8
 71
     3
 72
    15
 73
    11
 74
     0
 42
0.00000001
 43
0.00000001
 40
0.0
 40
0.0
 40
0.0
 40
0.0
 40
0.1378701779028652
 40
0.2678263008770432
 40
0.391489648592923
 40
0.513356338857884
 40
0.6320021013494987
 40
0.7517760581211202
 40
0.8728899765489655
 40
1.0
 40
1.0
 40
1.0
 40
1.0
 10
3.188591609589041
 20
3.145098458904111
 30
0.0
 10
3.207957148936829
 20
3.171828113742827
 30
0.0
 10
3.245576602591709
 20
3.223753081767581
 30
0.0
 10
3.309979116053679
 20
3.292164518886903
 30
0.0
 10
3.378859081458082
 20
3.350018693471577
 30
0.0
 10
3.451772273889667
 20
3.398395087666821
 30
0.0
 10
3.530971632923725
 20
3.432953476560009
 30
0.0
 10
3.612298442824013
 20
3.461570417014607
 30
0.0
 10
3.699584108066654
 20
3.476036296579584
 30
0.0
 10
3.758943905949599
 20
3.478295279370741
 30
0.0
 10
3.789340753424658
 20
3.479452054794522
 30
0.0
  0
SPLINE
  5
9C
330
1F
100
AcDbEntity
  8
0
  6
Continuous
 62
     7
370
    25
100
AcDbSpline
210
0.0
220
0.0
230
1.0
 70
     8
 71
     3
 72
    15
 73
    11
 74
     0
 42
0.00000001
 43
0.00000001
 40
0.0
 40
0.0
 40
0.0
 40
0.0
 40
0.1356440109633388
 40
0.2653887929874147
 40
0.388835651275706
 40
0.5152414773080096
 40
0.6392010212839004
 40
0.7577355676773482
 40
0.8757338598990557
 40
0.9999999999999999
 40
0.9999999999999999
 40
0.9999999999999999
 40
0.9999999999999999
 10
3.789340753424658
 20
3.479452054794522
 30
0.0
 10
3.821623700259672
 20
3.47779711342995
 30
0.0
 10
3.884785591697229
 20
3.474559204965802
 30
0.0
 10
3.975373462947405
 20
3.451923230239576
 30
0.0
 10
4.056415958093
 20
3.410611416357698
 30
0.0
 10
4.127599514429598
 20
3.356704687818204
 30
0.0
 10
4.188294697969011
 20
3.29227719716885
 30
0.0
 10
4.230701553938705
 20
3.217028567342989
 30
0.0
 10
4.25847668101144
 20
3.134780762203114
 30
0.0
 10
4.261022780915123
 20
3.076918503368906
 30
0.0
 10
4.262328767123288
 20
3.047238869863015
 30
0.0
  0
SPLINE
  5
9D
330
1F
100
AcDbEntity
  8
0
  6
Continuous
 62
     7
370
    25
100
AcDbSpline
210
0.0
220
0.0
230
1.0
 70
     8
 71
     3
 72
    11
 73
     7
 74
     0
 42
0.00000001
 43
0.00000001
 40
0.0
 40
0.0
 40
0.0
 40
0.0
 40
0.2118090457635269
 40
0.4493445584445329
 40
0.7113049322976012
 40
1.0
 40
1.0
 40
1.0
 40
1.0
 10
4.262328767123288
 20
3.047238869863015
 30
0.0
 10
4.261533328146418
 20
3.025432396117531
 30
0.0
 10
4.259845835647964
 20
2.9791708198894
 30
0.0
 10
4.245126075892736
 20
2.907219731919694
 30
0.0
 10
4.222034052573302
 20
2.829397744409991
 30
0.0
 10
4.200318830652918
 20
2.777035075697156
 30
0.0
 10
4.188934075342467
 20
2.749582619863015
 30
0.0
  0
SPLINE
  5
A0
330
1F
100
AcDbEntity
  8
0
  6
Continuous
 62
     7
370
    25
100
AcDbSpline
210
0.0
220
0.0
230
1.0
 70
     8
 71
     3
 72
    15
 73
    11
 74
     0
 42
0.00000001
 43
0.00000001
 40
0.0
 40
0.0
 40
0.0
 40
0.0
 40
0.141950325710479
 40
0.2714271713024343
 40
0.3949916367764741
 40
0.515414616900152
 40
0.6312222282024943
 40
0.7486117438771158
 40
0.8705231544080445
 40
1.0
 40
1.0
 40
1.0
 40
1.0
 10
3.19810573630137
 20
0.0000000000000017
 30
0.0
 10
3.166331731640259
 20
0.0010565909470744
 30
0.0
 10
3.105575772378103
 20
0.0030769279244802
 30
0.0
 10
3.018122978241879
 20
0.0180783339153896
 30
0.0
 10
2.938386755379298
 20
0.0440128928585167
 30
0.0
 10
2.866110894389505
 20
0.0803848110825689
 30
0.0
 10
2.80248743264178
 20
0.1279842047877718
 30
0.0
 10
2.745863751484036
 20
0.1841136344353023
 30
0.0
 10
2.697554474819861
 20
0.2516702251793912
 30
0.0
 10
2.673583396822991
 20
0.3026565714552127
 30
0.0
 10
2.661237157534247
 20
0.3289169520547964
 30
0.0
  0
SPLINE
  5
A1
330
1F
100
AcDbEntity
  8
0
  6
Continuous
 62
     7
370
    25
100
AcDbSpline
210
0.0
220
0.0
230
1.0
 70
     8
 71
     3
 72
    11
 73
     7
 74
     0
 42
0.00000001
 43
0.00000001
 40
0.0
 40
0.0
 40
0.0
 40
0.0
 40
0.2667212684696044
 40
0.5118787374950524
 40
0.752434301566769
 40
1.0
 40
1.0
 40
1.0
 40
1.0
 10
-1.830789811643833
 20
0.9568493150684941
 30
0.0
 10
-1.779159562029895
 20
0.9593202345310453
 30
0.0
 10
-1.680073249413812
 20
0.9640623053160258
 30
0.0
 10
-1.541490021140254
 20
1.011843893002524
 30
0.0
 10
-1.418317862760001
 20
1.085172284241898
 30
0.0
 10
-1.356523065393685
 20
1.156942733196848
 30
0.0
 10
-1.325181934931505
 20
1.193343321917809
 30
0.0
  0
SPLINE
  5
A2
330
1F
100
AcDbEntity
  8
0
  6
Continuous
 62
     7
370
    25
100
AcDbSpline
210
0.0
220
0.0
230
1.0
 70
     8
 71
     3
 72
    15
 73
    11
 74
     0
 42
0.00000001
 43
0.00000001
 40
0.0
 40
0.0
 40
0.0
 40
0.0
 40
0.1383602543870957
 40
0.2713944299441
 40
0.3999159764403791
 40
0.5241386053602097
 40
0.6447690018739148
 40
0.7647610489594492
 40
0.8829063276523661
 40
1.0
 40
1.0
 40
1.0
 40
1.0
 10
-1.325181934931505
 20
1.193343321917809
 30
0.0
 10
-1.29555221656511
 20
1.232768254349385
 30
0.0
 10
-1.237433354605271
 20
1.31010048469436
 30
0.0
 10
-1.162580008713174
 20
1.431602390426267
 30
0.0
 10
-1.100101651445458
 20
1.554176251795687
 30
0.0
 10
-1.048287253485501
 20
1.676791925753881
 30
0.0
 10
-1.006244753219361
 20
1.800034693517554
 30
0.0
 10
-0.9787029188430472
 20
1.925009162771358
 30
0.0
 10
-0.9596222646201168
 20
2.050388542370883
 30
0.0
 10
-0.9577708727803832
 20
2.134265631610538
 30
0.0
 10
-0.9568493150684909
 20
2.17601669520548
 30
0.0
  0
SPLINE
  5
A3
330
1F
100
AcDbEntity
  8
0
  6
Continuous
 62
     7
370
    25
100
AcDbSpline
210
0.0
220
0.0
230
1.0
 70
     8
 71
     3
 72
    15
 73
    11
 74
     0
 42
0.00000001
 43
0.00000001
 40
0.0
 40
0.0
 40
0.0
 40
0.0
 40
0.1479279242869475
 40
0.27878168143008
 40
0.3950772207088466
 40
0.5060733346194626
 40
0.6151866799171041
 40
0.7305123760549785
 40
0.8579624678087447
 40
1.0
 40
1.0
 40
1.0
 40
1.0
 10
-0.9568493150684909
 20
2.17601669520548
 30
0.0
 10
-0.9581376809301917
 20
2.210078561779818
 30
0.0
 10
-0.9605657066254978
 20
2.274270799195527
 30
0.0
 10
-0.9787574921325845
 20
2.363990338836763
 30
0.0
 10
-1.012026400079466
 20
2.440167956785058
 30
0.0
 10
-1.058961861958399
 20
2.502668809790195
 30
0.0
 10
-1.119426625357869
 20
2.552030310947346
 30
0.0
 10
-1.193748560670502
 20
2.5859732520515
 30
0.0
 10
-1.280618335477829
 20
2.606248309322291
 30
0.0
 10
-1.342732617613181
 20
2.608435990572103
 30
0.0
 10
-1.375470890410956
 20
2.609589041095891
 30
0.0
  0
SPLINE
  5
A4
330
1F
100
AcDbEntity
  8
0
  6
Continuous
 62
     7
370
    25
100
AcDbSpline
210
0.0
220
0.0
230
1.0
 70
     8
 71
     3
 72
    15
 73
    11
 74
     0
 42
0.00000001
 43
0.00000001
 40
0.0
 40
0.0
 40
0.0
 40
0.0
 40
0.1242904363744069
 40
0.2408871606422617
 40
0.3560144717839373
 40
0.4709132865053259
 40
0.5907098021993406
 40
0.7156055080577731
 40
0.8524953717412564
 40
1.0
 40
1.0
 40
1.0
 40
1.0
 10
-1.375470890410956
 20
2.609589041095891
 30
0.0
 10
-1.41277073790934
 20
2.608159726066615
 30
0.0
 10
-1.485061532103746
 20
2.605389572150439
 30
0.0
 10
-1.58941334333812
 20
2.579827932787718
 30
0.0
 10
-1.685193470215699
 20
2.538673830666525
 30
0.0
 10
-1.774231357221233
 20
2.482251312234352
 30
0.0
 10
-1.85298264940622
 20
2.407808073423711
 30
0.0
 10
-1.923226549225301
 20
2.317168526850151
 30
0.0
 10
-1.985634944696402
 20
2.211093550704697
 30
0.0
 10
-2.01881426327381
 20
2.132508038221823
 30
0.0
 10
-2.036023116438354
 20
2.091748715753425
 30
0.0
  0
SPLINE
  5
A5
330
1F
100
AcDbEntity
  8
0
  6
Continuous
 62
     7
370
    25
100
AcDbSpline
210
0.0
220
0.0
230
1.0
 70
     8
 71
     3
 72
     9
 73
     5
 74
     0
 42
0.00000001
 43
0.00000001
 40
0.0
 40
0.0
 40
0.0
 40
0.0
 40
0.5500857797958875
 40
1.0
 40
1.0
 40
1.0
 40
1.0
 10
-2.036023116438354
 20
2.091748715753425
 30
0.0
 10
-2.042859824088147
 20
2.074095158192936
 30
0.0
 10
-2.055288263253271
 20
2.042002786041379
 30
0.0
 10
-2.067311180769758
 20
2.009756396759423
 30
0.0
 10
-2.072720462328765
 20
1.995248287671233
 30
0.0
  0
SPLINE
  5
A8
330
1F
100
AcDbEntity
  8
0
  6
Continuous
 62
     7
370
    25
100
AcDbSpline
210
0.0
220
0.0
230
1.0
 70
     8
 71
     3
 72
    15
 73
    11
 74
     0
 42
0.00000001
 43
0.00000001
 40
0.0
 40
0.0
 40
0.0
 40
0.0
 40
0.1541994724214361
 40
0.2949333896858863
 40
0.4250040579139803
 40
0.5454672842956273
 40
0.6602115765644176
 40
0.7715361684602722
 40
0.883352189725053
 40
1.0
 40
1.0
 40
1.0
 40
1.0
 10
-3.953799229452052
 20
-2.533476027397259
 30
0.0
 10
-3.974998810365662
 20
-2.580649845708976
 30
0.0
 10
-4.015546706934876
 20
-2.670878002268912
 30
0.0
 10
-4.089792799916529
 20
-2.792843803677822
 30
0.0
 10
-4.169578756615229
 20
-2.897269547904877
 30
0.0
 10
-4.257292786025253
 20
-2.983385989464831
 30
0.0
 10
-4.353443735229414
 20
-3.04972044330864
 30
0.0
 10
-4.457164181005425
 20
-3.096204741927166
 30
0.0
 10
-4.567798677563026
 20
-3.126513296290574
 30
0.0
 10
-4.644504583542553
 20
-3.129819027302642
 30
0.0
 10
-4.683668664383559
 20
-3.131506849315067
 30
0.0
  0
SPLINE
  5
A9
330
1F
100
AcDbEntity
  8
0
  6
Continuous
 62
     7
370
    25
100
AcDbSpline
210
0.0
220
0.0
230
1.0
 70
     8
 71
     3
 72
    15
 73
    11
 74
     0
 42
0.00000001
 43
0.00000001
 40
0.0
 40
0.0
 40
0.0
 40
0.0
 40
0.1342286148313934
 40
0.2600001770668585
 40
0.3868111913772176
 40
0.5156281988090312
 40
0.6417905591760464
 40
0.7626723541902999
 40
0.8798842030926305
 40
1.0
 40
1.0
 40
1.0
 40
1.0
 10
-4.683668664383559
 20
-3.131506849315067
 30
0.0
 10
-4.713696215284715
 20
-3.129824184910162
 30
0.0
 10
-4.771859436003276
 20
-3.126564872104399
 30
0.0
 10
-4.856280732323312
 20
-3.104373054311159
 30
0.0
 10
-4.932633578913497
 20
-3.065272902914991
 30
0.0
 10
-5.001805867086421
 20
-3.0144209652982
 30
0.0
 10
-5.058736116069053
 20
-2.951845090918907
 30
0.0
 10
-5.102047331243404
 20
-2.882231013887851
 30
0.0
 10
-5.127644563150726
 20
-2.805206849278267
 30
0.0
 10
-5.130663727404193
 20
-2.752030985302766
 30
0.0
 10
-5.132191780821915
 20
-2.725117722602739
 30
0.0
  0
SPLINE
  5
AA
330
1F
100
AcDbEntity
  8
0
  6
Continuous
 62
     7
370
    25
100
AcDbSpline
210
0.0
220
0.0
230
1.0
 70
     8
 71
     3
 72
    11
 73
     7
 74
     0
 42
0.00000001
 43
0.00000001
 40
0.0
 40
0.0
 40
0.0
 40
0.0
 40
0.181669741039772
 40
0.4049712345180861
 40
0.6786048410645241
 40
1.0
 40
1.0
 40
1.0
 40
1.0
 10
-5.132191780821915
 20
-2.725117722602739
 30
0.0
 10
-5.130688702591762
 20
-2.698281432528734
 30
0.0
 10
-5.127338098121482
 20
-2.638459001677272
 30
0.0
 10
-5.102683819789908
 20
-2.54086638061421
 30
0.0
 10
-5.065914877226969
 20
-2.425805164411716
 30
0.0
 10
-5.033935982058621
 20
-2.343926031267601
 30
0.0
 10
-5.016663099315066
 20
-2.299700342465752
 30
0.0
  0
SPLINE
  5
AC
330
1F
100
AcDbEntity
  8
0
  6
Continuous
 62
     7
370
    25
100
AcDbSpline
210
0.0
220
0.0
230
1.0
 70
     8
 71
     3
 72
    15
 73
    11
 74
     0
 42
0.00000001
 43
0.00000001
 40
0.0
 40
0.0
 40
0.0
 40
0.0
 40
0.1382195876983168
 40
0.2677802887697483
 40
0.3897661784644698
 40
0.50711231184591
 40
0.6240949560730842
 40
0.7432154225534063
 40
0.868266120315454
 40
1.0
 40
1.0
 40
1.0
 40
1.0
 10
-2.794434931506847
 20
3.073062928082192
 30
0.0
 10
-2.77985120164677
 20
3.10520023806537
 30
0.0
 10
-2.751597352403672
 20
3.167461588217574
 30
0.0
 10
-2.697031703079229
 20
3.251143937333692
 30
0.0
 10
-2.633700624967655
 20
3.321183547027657
 30
0.0
 10
-2.563540398376044
 20
3.37946947463455
 30
0.0
 10
-2.48522053695687
 20
3.4251733317519
 30
0.0
 10
-2.398040250302536
 20
3.456111760944554
 30
0.0
 10
-2.303724135416683
 20
3.475533848961987
 30
0.0
 10
-2.23818269824365
 20
3.47812351956988
 30
0.0
 10
-2.204559075342464
 20
3.479452054794522
 30
0.0
  0
SPLINE
  5
AD
330
1F
100
AcDbEntity
  8
0
  6
Continuous
 62
     7
370
    25
100
AcDbSpline
210
0.0
220
0.0
230
1.0
 70
     8
 71
     3
 72
    11
 73
     7
 74
     0
 42
0.00000001
 43
0.00000001
 40
0.0
 40
0.0
 40
0.0
 40
0.0
 40
0.2469739321703956
 40
0.4852198098395031
 40
0.7302810399783757
 40
1.0
 40
1.0
 40
1.0
 40
1.0
 10
-2.204559075342464
 20
3.479452054794522
 30
0.0
 10
-2.158321365409518
 20
3.47600602019968
 30
0.0
 10
-2.06747998541481
 20
3.469235733813116
 30
0.0
 10
-1.939112069383078
 20
3.41645794200846
 30
0.0
 10
-1.827841689220203
 20
3.327050273298974
 30
0.0
 10
-1.772696709485502
 20
3.24778941184355
 30
0.0
 10
-1.74380351027397
 20
3.206260702054795
 30
0.0
  0
SPLINE
  5
AE
330
1F
100
AcDbEntity
  8
0
  6
Continuous
 62
     7
370
    25
100
AcDbSpline
210
0.0
220
0.0
230
1.0
 70
     8
 71
     3
 72
    11
 73
     7
 74
     0
 42
0.00000001
 43
0.00000001
 40
0.0
 40
0.0
 40
0.0
 40
0.0
 40
0.2454380285334482
 40
0.4886771915354465
 40
0.7362520124697527
 40
1.0
 40
1.0
 40
1.0
 40
1.0
 10
-1.74380351027397
 20
3.206260702054795
 30
0.0
 10
-1.689536929060714
 20
3.24843150006737
 30
0.0
 10
-1.581489937891576
 20
3.332395290278408
 30
0.0
 10
-1.392561438262079
 20
3.417648736277496
 30
0.0
 10
-1.187083928110894
 20
3.469638945252494
 30
0.0
 10
-1.044162133698822
 20
3.476112762556318
 30
0.0
 10
-0.9704409246575318
 20
3.479452054794522
 30
0.0
  0
SPLINE
  5
AF
330
1F
100
AcDbEntity
  8
0
  6
Continuous
 62
     7
370
    25
100
AcDbSpline
210
0.0
220
0.0
230
1.0
 70
     8
 71
     3
 72
    23
 73
    19
 74
     0
 42
0.00000001
 43
0.00000001
 40
0.0
 40
0.0
 40
0.0
 40
0.0
 40
0.0617143079117374
 40
0.1211005685978188
 40
0.1789842714558493
 40
0.2350117394915782
 40
0.2917945424257147
 40
0.3485356460986759
 40
0.4065418927075584
 40
0.4665975139683953
 40
0.5278112018300052
 40
0.5896276999172853
 40
0.6522389175595698
 40
0.716245912967488
 40
0.7830986816930507
 40
0.8523779075035205
 40
0.9245428250129817
 40
1.0
 40
1.0
 40
1.0
 40
1.0
 10
-0.9704409246575318
 20
3.479452054794522
 30
0.0
 10
-0.931881740160296
 20
3.478413188534626
 30
0.0
 10
-0.856217938275622
 20
3.476374645139626
 30
0.0
 10
-0.7452355511092523
 20
3.460158319000556
 30
0.0
 10
-0.6407547845797602
 20
3.431107342377241
 30
0.0
 10
-0.5409144231556632
 20
3.393015671503539
 30
0.0
 10
-0.4475248437507839
 20
3.34251944386403
 30
0.0
 10
-0.35921303193362
 20
3.28123099367284
 30
0.0
 10
-0.2796356335237345
 20
3.206140720683333
 30
0.0
 10
-0.2029143776807177
 20
3.124346089432336
 30
0.0
 10
-0.1357869332508311
 20
3.031440064892307
 30
0.0
 10
-0.0754470051619405
 20
2.932257299553632
 30
0.0
 10
-0.0250401927834697
 20
2.825619981426806
 30
0.0
 10
0.0156553526440733
 20
2.711669360755939
 30
0.0
 10
0.0483872387216188
 20
2.590849556534892
 30
0.0
 10
0.0711667236602221
 20
2.462602606521861
 30
0.0
 10
0.0850821901023678
 20
2.327648609169628
 30
0.0
 10
0.0863422305033653
 20
2.235401395891418
 30
0.0
 10
0.0869863013698655
 20
2.188249143835617
 30
0.0
  0
SPLINE
  5
B0
330
1F
100
AcDbEntity
  8
0
  6
Continuous
 62
     7
370
    25
100
AcDbSpline
210
0.0
220
0.0
230
1.0
 70
     8
 71
     3
 72
    15
 73
    11
 74
     0
 42
0.00000001
 43
0.00000001
 40
0.0
 40
0.0
 40
0.0
 40
0.0
 40
0.1357574097280872
 40
0.2662565581917005
 40
0.3925480118955677
 40
0.5151361908744795
 40
0.6365741938316668
 40
0.755972731099684
 40
0.8771664802133929
 40
1.0
 40
1.0
 40
1.0
 40
1.0
 10
0.0869863013698655
 20
2.188249143835617
 30
0.0
 10
0.0849925390914462
 20
2.098892347600782
 30
0.0
 10
0.081082238481206
 20
1.92363979185316
 30
0.0
 10
0.0475742514554819
 20
1.667051266995887
 30
0.0
 10
-0.0061010514186233
 20
1.422910773720595
 30
0.0
 10
-0.0830431437809547
 20
1.191274086525292
 30
0.0
 10
-0.1804128630589734
 20
0.9723851109360807
 30
0.0
 10
-0.3003878612217919
 20
0.766175394868385
 30
0.0
 10
-0.441065195234355
 20
0.5719721896981643
 30
0.0
 10
-0.5518036573463141
 20
0.4555016092714632
 30
0.0
 10
-0.6075449486301349
 20
0.3968750000000012
 30
0.0
  0
SPLINE
  5
B1
330
1F
100
AcDbEntity
  8
0
  6
Continuous
 62
     7
370
    25
100
AcDbSpline
210
0.0
220
0.0
230
1.0
 70
     8
 71
     3
 72
    15
 73
    11
 74
     0
 42
0.00000001
 43
0.00000001
 40
0.0
 40
0.0
 40
0.0
 40
0.0
 40
0.1248496877495559
 40
0.2406743218616912
 40
0.3504532581191525
 40
0.454797631423394
 40
0.5644037213839098
 40
0.6912869867812298
 40
0.8366556331857187
 40
1.0
 40
1.0
 40
1.0
 40
1.0
 10
-0.6075449486301349
 20
0.3968750000000012
 30
0.0
 10
-0.6454255836835683
 20
0.3612728872262809
 30
0.0
 10
-0.7184485628956867
 20
0.2926422442258217
 30
0.0
 10
-0.8349890823613089
 20
0.2043460200556648
 30
0.0
 10
-0.9536040240148713
 20
0.1345911156193644
 30
0.0
 10
-1.077412452294335
 20
0.0803804680237182
 30
0.0
 10
-1.214830553845027
 20
0.0434411949804777
 30
0.0
 10
-1.372016624682872
 20
0.0190212434089418
 30
0.0
 10
-1.552724345930422
 20
0.0025321986581776
 30
0.0
 10
-1.681240475227806
 20
0.0008762078593906
 30
0.0
 10
-1.749240154109587
 20
0.0000000000000011
 30
0.0
  0
SPLINE
  5
B2
330
1F
100
AcDbEntity
  8
0
  6
Continuous
 62
     7
370
    25
100
AcDbSpline
210
0.0
220
0.0
230
1.0
 70
     8
 71
     3
 72
    15
 73
    11
 74
     0
 42
0.00000001
 43
0.00000001
 40
0.0
 40
0.0
 40
0.0
 40
0.0
 40
0.1918993112385068
 40
0.3523672641033322
 40
0.4806084700079574
 40
0.579323833688845
 40
0.6673295228259191
 40
0.7646430845967175
 40
0.8753732810471241
 40
1.0
 40
1.0
 40
1.0
 40
1.0
 10
-1.749240154109587
 20
0.0000000000000011
 30
0.0
 10
-1.820397780798541
 20
0.0005698996050668
 30
0.0
 10
-1.951058063394916
 20
0.0016163544534693
 30
0.0
 10
-2.12888199705219
 20
0.0139325135781426
 30
0.0
 10
-2.271675123922154
 20
0.0306004507141663
 30
0.0
 10
-2.385473576542659
 20
0.0592224292936714
 30
0.0
 10
-2.481037306372339
 20
0.1050887996343795
 30
0.0
 10
-2.569915832884751
 20
0.1701003985868309
 30
0.0
 10
-2.661374924624341
 20
0.2532527190244255
 30
0.0
 10
-2.71815640351557
 20
0.3196056553760028
 30
0.0
 10
-2.748223458904107
 20
0.3547410102739737
 30
0.0
  0
SPLINE
  5
B3
330
1F
100
AcDbEntity
  8
0
  6
Continuous
 62
     7
370
    25
100
AcDbSpline
210
0.0
220
0.0
230
1.0
 70
     8
 71
     3
 72
    15
 73
    11
 74
     0
 42
0.00000001
 43
0.00000001
 40
0.0
 40
0.0
 40
0.0
 40
0.0
 40
0.1602132202988402
 40
0.2971480578879193
 40
0.4130265779671164
 40
0.5084447498875323
 40
0.6041131447163857
 40
0.7154676476836985
 40
0.8481762649965083
 40
1.0
 40
1.0
 40
1.0
 40
1.0
 10
-2.373095034246573
 20
1.283047945205481
 30
0.0
 10
-2.355289008744057
 20
1.251288263123833
 30
0.0
 10
-2.322264106760898
 20
1.192383462183586
 30
0.0
 10
-2.265327350836387
 20
1.117665071857634
 30
0.0
 10
-2.213656632171513
 20
1.05774881503728
 30
0.0
 10
-2.158524916621216
 20
1.013818809730594
 30
0.0
 10
-2.094167551772908
 20
0.9882953819731932
 30
0.0
 10
-2.019415317959576
 20
0.9689169727491881
 30
0.0
 10
-1.929788105151844
 20
0.9593099008046269
 30
0.0
 10
-1.865234823679022
 20
0.9577054399802618
 30
0.0
 10
-1.830789811643833
 20
0.9568493150684941
 30
0.0
  0
SPLINE
  5
B4
330
1F
100
AcDbEntity
  8
0
  6
Continuous
 62
     7
370
    25
100
AcDbSpline
210
0.0
220
0.0
230
1.0
 70
     8
 71
     3
 72
    11
 73
     7
 74
     0
 42
0.00000001
 43
0.00000001
 40
0.0
 40
0.0
 40
0.0
 40
0.0
 40
0.2667212684696031
 40
0.5118787374950521
 40
0.7524343015667683
 40
1.0
 40
1.0
 40
1.0
 40
1.0
 10
-5.919145976027397
 20
0.9568493150684934
 30
0.0
 10
-5.867515726413458
 20
0.9593202345310446
 30
0.0
 10
-5.768429413797375
 20
0.9640623053160251
 30
0.0
 10
-5.629846185523816
 20
1.011843893002522
 30
0.0
 10
-5.506674027143564
 20
1.085172284241898
 30
0.0
 10
-5.444879229777249
 20
1.156942733196847
 30
0.0
 10
-5.413538099315068
 20
1.193343321917808
 30
0.0
  0
SPLINE
  5
B5
330
1F
100
AcDbEntity
  8
0
  6
Continuous
 62
     7
370
    25
100
AcDbSpline
210
0.0
220
0.0
230
1.0
 70
     8
 71
     3
 72
    15
 73
    11
 74
     0
 42
0.00000001
 43
0.00000001
 40
0.0
 40
0.0
 40
0.0
 40
0.0
 40
0.1383602543870956
 40
0.2713944299441001
 40
0.3999159764403791
 40
0.5241386053602094
 40
0.6447690018739146
 40
0.7647610489594487
 40
0.8829063276523661
 40
1.0
 40
1.0
 40
1.0
 40
1.0
 10
-5.413538099315068
 20
1.193343321917808
 30
0.0
 10
-5.383908380948674
 20
1.232768254349384
 30
0.0
 10
-5.325789518988836
 20
1.31010048469436
 30
0.0
 10
-5.250936173096736
 20
1.431602390426265
 30
0.0
 10
-5.188457815829021
 20
1.554176251795686
 30
0.0
 10
-5.136643417869065
 20
1.67679192575388
 30
0.0
 10
-5.094600917602923
 20
1.800034693517553
 30
0.0
 10
-5.067059083226614
 20
1.925009162771357
 30
0.0
 10
-5.047978429003679
 20
2.050388542370882
 30
0.0
 10
-5.046127037163946
 20
2.134265631610538
 30
0.0
 10
-5.045205479452055
 20
2.17601669520548
 30
0.0
  0
SPLINE
  5
B6
330
1F
100
AcDbEntity
  8
0
  6
Continuous
 62
     7
370
    25
100
AcDbSpline
210
0.0
220
0.0
230
1.0
 70
     8
 71
     3
 72
    15
 73
    11
 74
     0
 42
0.00000001
 43
0.00000001
 40
0.0
 40
0.0
 40
0.0
 40
0.0
 40
0.1479279242869473
 40
0.2787816814300798
 40
0.3950772207088464
 40
0.5060733346194618
 40
0.6151866799171039
 40
0.7305123760549783
 40
0.8579624678087449
 40
1.0
 40
1.0
 40
1.0
 40
1.0
 10
-5.045205479452055
 20
2.17601669520548
 30
0.0
 10
-5.046493845313755
 20
2.210078561779818
 30
0.0
 10
-5.048921871009062
 20
2.274270799195528
 30
0.0
 10
-5.067113656516148
 20
2.363990338836762
 30
0.0
 10
-5.10038256446303
 20
2.440167956785058
 30
0.0
 10
-5.147318026341962
 20
2.502668809790194
 30
0.0
 10
-5.207782789741432
 20
2.552030310947345
 30
0.0
 10
-5.282104725054066
 20
2.5859732520515
 30
0.0
 10
-5.368974499861394
 20
2.60624830932229
 30
0.0
 10
-5.431088781996745
 20
2.608435990572102
 30
0.0
 10
-5.46382705479452
 20
2.609589041095891
 30
0.0
  0
SPLINE
  5
B7
330
1F
100
AcDbEntity
  8
0
  6
Continuous
 62
     7
370
    25
100
AcDbSpline
210
0.0
220
0.0
230
1.0
 70
     8
 71
     3
 72
    15
 73
    11
 74
     0
 42
0.00000001
 43
0.00000001
 40
0.0
 40
0.0
 40
0.0
 40
0.0
 40
0.1242904363744065
 40
0.2408871606422619
 40
0.3560144717839366
 40
0.4709132865053262
 40
0.5907098021993404
 40
0.7156055080577731
 40
0.8524953717412566
 40
0.9999999999999999
 40
0.9999999999999999
 40
0.9999999999999999
 40
0.9999999999999999
 10
-5.46382705479452
 20
2.609589041095891
 30
0.0
 10
-5.501126902292905
 20
2.608159726066615
 30
0.0
 10
-5.573417696487311
 20
2.60538957215044
 30
0.0
 10
-5.677769507721683
 20
2.579827932787717
 30
0.0
 10
-5.773549634599262
 20
2.538673830666524
 30
0.0
 10
-5.862587521604797
 20
2.482251312234351
 30
0.0
 10
-5.941338813789784
 20
2.40780807342371
 30
0.0
 10
-6.011582713608865
 20
2.317168526850151
 30
0.0
 10
-6.073991109079966
 20
2.211093550704697
 30
0.0
 10
-6.107170427657374
 20
2.132508038221822
 30
0.0
 10
-6.124379280821917
 20
2.091748715753425
 30
0.0
  0
SPLINE
  5
B9
330
1F
100
AcDbEntity
  8
0
  6
Continuous
 62
     7
370
    25
100
AcDbSpline
210
0.0
220
0.0
230
1.0
 70
     8
 71
     3
 72
    15
 73
    11
 74
     0
 42
0.00000001
 43
0.00000001
 40
0.0
 40
0.0
 40
0.0
 40
0.0
 40
0.1602132202988401
 40
0.2971480578879191
 40
0.4130265779671162
 40
0.508444749887532
 40
0.6041131447163852
 40
0.715467647683698
 40
0.8481762649965084
 40
1.0
 40
1.0
 40
1.0
 40
1.0
 10
-6.461451198630137
 20
1.28304794520548
 30
0.0
 10
-6.443645173127621
 20
1.251288263123832
 30
0.0
 10
-6.41062027114446
 20
1.192383462183585
 30
0.0
 10
-6.353683515219952
 20
1.117665071857634
 30
0.0
 10
-6.302012796555077
 20
1.057748815037279
 30
0.0
 10
-6.246881081004778
 20
1.013818809730593
 30
0.0
 10
-6.182523716156471
 20
0.9882953819731921
 30
0.0
 10
-6.107771482343142
 20
0.9689169727491875
 30
0.0
 10
-6.018144269535407
 20
0.9593099008046262
 30
0.0
 10
-5.953590988062585
 20
0.957705439980261
 30
0.0
 10
-5.919145976027397
 20
0.9568493150684934
 30
0.0
  0
SPLINE
  5
BB
330
1F
100
AcDbEntity
  8
0
  6
Continuous
 62
     7
370
    25
100
AcDbSpline
210
0.0
220
0.0
230
1.0
 70
     8
 71
     3
 72
    15
 73
    11
 74
     0
 42
0.00000001
 43
0.00000001
 40
0.0
 40
0.0
 40
0.0
 40
0.0
 40
0.1541994724214361
 40
0.2949333896858868
 40
0.4250040579139808
 40
0.5454672842956272
 40
0.6602115765644183
 40
0.771536168460273
 40
0.8833521897250529
 40
1.0
 40
1.0
 40
1.0
 40
1.0
 10
-8.042155393835616
 20
-2.533476027397259
 30
0.0
 10
-8.063354974749226
 20
-2.580649845708976
 30
0.0
 10
-8.10390287131844
 20
-2.670878002268913
 30
0.0
 10
-8.178148964300096
 20
-2.792843803677823
 30
0.0
 10
-8.257934920998789
 20
-2.897269547904876
 30
0.0
 10
-8.34564895040882
 20
-2.983385989464833
 30
0.0
 10
-8.441799899612977
 20
-3.04972044330864
 30
0.0
 10
-8.545520345388988
 20
-3.096204741927167
 30
0.0
 10
-8.65615484194659
 20
-3.126513296290574
 30
0.0
 10
-8.732860747926118
 20
-3.129819027302644
 30
0.0
 10
-8.772024828767124
 20
-3.131506849315069
 30
0.0
  0
SPLINE
  5
BC
330
1F
100
AcDbEntity
  8
0
  6
Continuous
 62
     7
370
    25
100
AcDbSpline
210
0.0
220
0.0
230
1.0
 70
     8
 71
     3
 72
    11
 73
     7
 74
     0
 42
0.00000001
 43
0.00000001
 40
0.0
 40
0.0
 40
0.0
 40
0.0
 40
0.1816697410397718
 40
0.4049712345180858
 40
0.6786048410645249
 40
0.9999999999999999
 40
0.9999999999999999
 40
0.9999999999999999
 40
0.9999999999999999
 10
-9.22054794520548
 20
-2.725117722602739
 30
0.0
 10
-9.219044866975326
 20
-2.698281432528734
 30
0.0
 10
-9.215694262505043
 20
-2.638459001677271
 30
0.0
 10
-9.191039984173479
 20
-2.540866380614212
 30
0.0
 10
-9.154271041610528
 20
-2.425805164411716
 30
0.0
 10
-9.122292146442184
 20
-2.343926031267602
 30
0.0
 10
-9.10501926369863
 20
-2.299700342465753
 30
0.0
  0
SPLINE
  5
BD
330
1F
100
AcDbEntity
  8
0
  6
Continuous
 62
     7
370
    25
100
AcDbSpline
210
0.0
220
0.0
230
1.0
 70
     8
 71
     3
 72
    15
 73
    11
 74
     0
 42
0.00000001
 43
0.00000001
 40
0.0
 40
0.0
 40
0.0
 40
0.0
 40
0.1382195876983172
 40
0.2677802887697482
 40
0.3897661784644695
 40
0.5071123118459098
 40
0.6240949560730837
 40
0.743215422553406
 40
0.868266120315453
 40
1.0
 40
1.0
 40
1.0
 40
1.0
 10
-6.882791095890411
 20
3.073062928082192
 30
0.0
 10
-6.868207366030332
 20
3.105200238065369
 30
0.0
 10
-6.839953516787234
 20
3.167461588217572
 30
0.0
 10
-6.785387867462794
 20
3.251143937333693
 30
0.0
 10
-6.722056789351218
 20
3.321183547027656
 30
0.0
 10
-6.651896562759609
 20
3.37946947463455
 30
0.0
 10
-6.573576701340432
 20
3.4251733317519
 30
0.0
 10
-6.486396414686101
 20
3.456111760944552
 30
0.0
 10
-6.392080299800246
 20
3.475533848961987
 30
0.0
 10
-6.326538862627213
 20
3.478123519569879
 30
0.0
 10
-6.292915239726026
 20
3.479452054794521
 30
0.0
  0
SPLINE
  5
BE
330
1F
100
AcDbEntity
  8
0
  6
Continuous
 62
     7
370
    25
100
AcDbSpline
210
0.0
220
0.0
230
1.0
 70
     8
 71
     3
 72
    11
 73
     7
 74
     0
 42
0.00000001
 43
0.00000001
 40
0.0
 40
0.0
 40
0.0
 40
0.0
 40
0.2454380285334483
 40
0.4886771915354468
 40
0.7362520124697535
 40
1.0
 40
1.0
 40
1.0
 40
1.0
 10
-5.832159674657534
 20
3.206260702054795
 30
0.0
 10
-5.777893093444277
 20
3.248431500067368
 30
0.0
 10
-5.66984610227514
 20
3.332395290278408
 30
0.0
 10
-5.480917602645643
 20
3.417648736277495
 30
0.0
 10
-5.275440092494455
 20
3.469638945252493
 30
0.0
 10
-5.132518298082386
 20
3.476112762556317
 30
0.0
 10
-5.058797089041096
 20
3.479452054794521
 30
0.0
  0
SPLINE
  5
BF
330
1F
100
AcDbEntity
  8
0
  6
Continuous
 62
     7
370
    25
100
AcDbSpline
210
0.0
220
0.0
230
1.0
 70
     8
 71
     3
 72
    23
 73
    19
 74
     0
 42
0.00000001
 43
0.00000001
 40
0.0
 40
0.0
 40
0.0
 40
0.0
 40
0.0617143079117374
 40
0.121100568597819
 40
0.1789842714558495
 40
0.2350117394915784
 40
0.2917945424257148
 40
0.3485356460986761
 40
0.4065418927075585
 40
0.4665975139683954
 40
0.5278112018300053
 40
0.5896276999172854
 40
0.6522389175595699
 40
0.7162459129674881
 40
0.7830986816930507
 40
0.8523779075035205
 40
0.9245428250129817
 40
1.0
 40
1.0
 40
1.0
 40
1.0
 10
-5.058797089041096
 20
3.479452054794521
 30
0.0
 10
-5.02023790454386
 20
3.478413188534626
 30
0.0
 10
-4.944574102659185
 20
3.476374645139626
 30
0.0
 10
-4.833591715492817
 20
3.460158319000557
 30
0.0
 10
-4.729110948963323
 20
3.43110734237724
 30
0.0
 10
-4.629270587539227
 20
3.393015671503539
 30
0.0
 10
-4.535881008134349
 20
3.34251944386403
 30
0.0
 10
-4.447569196317184
 20
3.281230993672839
 30
0.0
 10
-4.367991797907299
 20
3.206140720683332
 30
0.0
 10
-4.291270542064281
 20
3.124346089432336
 30
0.0
 10
-4.224143097634395
 20
3.031440064892304
 30
0.0
 10
-4.163803169545504
 20
2.932257299553632
 30
0.0
 10
-4.113396357167032
 20
2.825619981426804
 30
0.0
 10
-4.072700811739491
 20
2.71166936075594
 30
0.0
 10
-4.039968925661945
 20
2.590849556534891
 30
0.0
 10
-4.017189440723341
 20
2.462602606521861
 30
0.0
 10
-4.003273974281195
 20
2.327648609169627
 30
0.0
 10
-4.002013933880198
 20
2.235401395891417
 30
0.0
 10
-4.001369863013698
 20
2.188249143835617
 30
0.0
  0
SPLINE
  5
C0
330
1F
100
AcDbEntity
  8
0
  6
Continuous
 62
     7
370
    25
100
AcDbSpline
210
0.0
220
0.0
230
1.0
 70
     8
 71
     3
 72
    15
 73
    11
 74
     0
 42
0.00000001
 43
0.00000001
 40
0.0
 40
0.0
 40
0.0
 40
0.0
 40
0.1357574097280874
 40
0.2662565581917008
 40
0.3925480118955679
 40
0.5151361908744797
 40
0.636574193831667
 40
0.7559727310996843
 40
0.8771664802133932
 40
1.0
 40
1.0
 40
1.0
 40
1.0
 10
-4.001369863013698
 20
2.188249143835617
 30
0.0
 10
-4.003363625292118
 20
2.098892347600781
 30
0.0
 10
-4.007273925902358
 20
1.923639791853159
 30
0.0
 10
-4.040781912928082
 20
1.667051266995887
 30
0.0
 10
-4.094457215802188
 20
1.422910773720593
 30
0.0
 10
-4.171399308164518
 20
1.191274086525292
 30
0.0
 10
-4.268769027442537
 20
0.9723851109360802
 30
0.0
 10
-4.388744025605357
 20
0.7661753948683847
 30
0.0
 10
-4.52942135961792
 20
0.5719721896981634
 30
0.0
 10
-4.640159821729878
 20
0.4555016092714624
 30
0.0
 10
-4.695901113013698
 20
0.3968750000000003
 30
0.0
  0
SPLINE
  5
C1
330
1F
100
AcDbEntity
  8
0
  6
Continuous
 62
     7
370
    25
100
AcDbSpline
210
0.0
220
0.0
230
1.0
 70
     8
 71
     3
 72
    15
 73
    11
 74
     0
 42
0.00000001
 43
0.00000001
 40
0.0
 40
0.0
 40
0.0
 40
0.0
 40
0.1248496877495558
 40
0.240674321861691
 40
0.3504532581191528
 40
0.4547976314233943
 40
0.5644037213839095
 40
0.6912869867812296
 40
0.8366556331857185
 40
1.0
 40
1.0
 40
1.0
 40
1.0
 10
-4.695901113013698
 20
0.3968750000000003
 30
0.0
 10
-4.733781748067131
 20
0.36127288722628
 30
0.0
 10
-4.806804727279252
 20
0.2926422442258211
 30
0.0
 10
-4.923345246744871
 20
0.2043460200556637
 30
0.0
 10
-5.041960188398434
 20
0.1345911156193638
 30
0.0
 10
-5.1657686166779
 20
0.0803804680237176
 30
0.0
 10
-5.30318671822859
 20
0.0434411949804768
 30
0.0
 10
-5.460372789066436
 20
0.0190212434089411
 30
0.0
 10
-5.641080510313984
 20
0.0025321986581767
 30
0.0
 10
-5.769596639611369
 20
0.0008762078593898
 30
0.0
 10
-5.837596318493151
 20
0.0000000000000002
 30
0.0
  0
SPLINE
  5
C2
330
1F
100
AcDbEntity
  8
0
  6
Continuous
 62
     7
370
    25
100
AcDbSpline
210
0.0
220
0.0
230
1.0
 70
     8
 71
     3
 72
    15
 73
    11
 74
     0
 42
0.00000001
 43
0.00000001
 40
0.0
 40
0.0
 40
0.0
 40
0.0
 40
0.191899311238507
 40
0.3523672641033325
 40
0.4806084700079574
 40
0.579323833688845
 40
0.6673295228259188
 40
0.7646430845967176
 40
0.8753732810471242
 40
1.0
 40
1.0
 40
1.0
 40
1.0
 10
-5.837596318493151
 20
0.0000000000000002
 30
0.0
 10
-5.908753945182106
 20
0.0005698996050662
 30
0.0
 10
-6.039414227778482
 20
0.0016163544534684
 30
0.0
 10
-6.217238161435754
 20
0.0139325135781417
 30
0.0
 10
-6.360031288305715
 20
0.0306004507141656
 30
0.0
 10
-6.473829740926225
 20
0.0592224292936705
 30
0.0
 10
-6.569393470755901
 20
0.1050887996343788
 30
0.0
 10
-6.658271997268313
 20
0.1701003985868301
 30
0.0
 10
-6.749731089007904
 20
0.2532527190244249
 30
0.0
 10
-6.806512567899134
 20
0.3196056553760019
 30
0.0
 10
-6.836579623287671
 20
0.3547410102739729
 30
0.0
  0
SPLINE
  5
C3
330
1F
100
AcDbEntity
  8
0
  6
Continuous
 62
     7
370
    25
100
AcDbSpline
210
0.0
220
0.0
230
1.0
 70
     8
 71
     3
 72
     9
 73
     5
 74
     0
 42
0.00000001
 43
0.00000001
 40
0.0
 40
0.0
 40
0.0
 40
0.0
 40
0.5500857797958897
 40
1.0
 40
1.0
 40
1.0
 40
1.0
 10
-6.124379280821917
 20
2.091748715753425
 30
0.0
 10
-6.13121598847171
 20
2.074095158192936
 30
0.0
 10
-6.143644427636836
 20
2.042002786041379
 30
0.0
 10
-6.155667345153322
 20
2.009756396759423
 30
0.0
 10
-6.161076626712329
 20
1.995248287671233
 30
0.0
  0
SPLINE
  5
C4
330
1F
100
AcDbEntity
  8
0
  6
Continuous
 62
     7
370
    25
100
AcDbSpline
210
0.0
220
0.0
230
1.0
 70
     8
 71
     3
 72
    11
 73
     7
 74
     0
 42
0.00000001
 43
0.00000001
 40
0.0
 40
0.0
 40
0.0
 40
0.0
 40
0.2469739321703958
 40
0.4852198098395028
 40
0.730281039978376
 40
1.0
 40
1.0
 40
1.0
 40
1.0
 10
-6.292915239726026
 20
3.479452054794521
 30
0.0
 10
-6.24667752979308
 20
3.476006020199679
 30
0.0
 10
-6.155836149798374
 20
3.469235733813115
 30
0.0
 10
-6.02746823376664
 20
3.416457942008459
 30
0.0
 10
-5.916197853603768
 20
3.327050273298974
 30
0.0
 10
-5.861052873869065
 20
3.247789411843549
 30
0.0
 10
-5.832159674657534
 20
3.206260702054795
 30
0.0
  0
SPLINE
  5
C5
330
1F
100
AcDbEntity
  8
0
  6
Continuous
 62
     7
370
    25
100
AcDbSpline
210
0.0
220
0.0
230
1.0
 70
     8
 71
     3
 72
    15
 73
    11
 74
     0
 42
0.00000001
 43
0.00000001
 40
0.0
 40
0.0
 40
0.0
 40
0.0
 40
0.1342286148313921
 40
0.2600001770668596
 40
0.3868111913772176
 40
0.5156281988090301
 40
0.6417905591760461
 40
0.7626723541903004
 40
0.8798842030926305
 40
1.0
 40
1.0
 40
1.0
 40
1.0
 10
-8.772024828767123
 20
-3.131506849315068
 30
0.0
 10
-8.80205237966828
 20
-3.129824184910162
 30
0.0
 10
-8.86021560038684
 20
-3.1265648721044
 30
0.0
 10
-8.944636896706877
 20
-3.104373054311159
 30
0.0
 10
-9.02098974329706
 20
-3.065272902914991
 30
0.0
 10
-9.090162031469987
 20
-3.014420965298199
 30
0.0
 10
-9.147092280452616
 20
-2.951845090918908
 30
0.0
 10
-9.19040349562697
 20
-2.882231013887852
 30
0.0
 10
-9.216000727534286
 20
-2.805206849278267
 30
0.0
 10
-9.219019891787756
 20
-2.752030985302766
 30
0.0
 10
-9.220547945205478
 20
-2.725117722602739
 30
0.0
  0
LINE
  5
C7
330
1F
100
AcDbEntity
  8
0
  6
Continuous
 62
     7
370
    25
100
AcDbLine
 10
12.2423605987
 20
-2.2453236164
 30
0.0
 11
12.2423605987
 21
5.4203236164
 31
0.0
  0
LINE
  5
C8
330
1F
100
AcDbEntity
  8
0
  6
Continuous
 62
     7
370
    25
100
AcDbLine
 10
9.0673605987
 20
8.5953236164
 30
0.0
 11
-9.0673605987
 21
8.5953236164
 31
0.0
  0
LINE
  5
C9
330
1F
100
AcDbEntity
  8
0
  6
Continuous
 62
     7
370
    25
100
AcDbLine
 10
-12.2423605987
 20
5.4203236164
 30
0.0
 11
-12.2423605987
 21
-2.2453236164
 31
0.0
  0
LINE
  5
CA
330
1F
100
AcDbEntity
  8
0
  6
Continuous
 62
     7
370
    25
100
AcDbLine
 10
-9.0673605987
 20
-5.4203236164
 30
0.0
 11
9.0673605987
 21
-5.4203236164
 31
0.0
  0
LINE
  5
CB
330
1F
100
AcDbEntity
  8
0
  6
Continuous
 62
     7
370
    25
100
AcDbLine
 10
-13.8298605987
 20
5.4203236164
 30
0.0
 11
-13.8298605987
 21
-2.2453236164
 31
0.0
  0
LINE
  5
CC
330
1F
100
AcDbEntity
  8
0
  6
Continuous
 62
     7
370
    25
100
AcDbLine
 10
9.0673605987
 20
10.1828236164
 30
0.0
 11
-9.0673605987
 21
10.1828236164
 31
0.0
  0
LINE
  5
CD
330
1F
100
AcDbEntity
  8
0
  6
Continuous
 62
     7
370
    25
100
AcDbLine
 10
13.8298605987
 20
-2.2453236164
 30
0.0
 11
13.8298605987
 21
5.4203236164
 31
0.0
  0
LINE
  5
CE
330
1F
100
AcDbEntity
  8
0
  6
Continuous
 62
     7
370
    25
100
AcDbLine
 10
-9.0673605987
 20
-7.0078236164
 30
0.0
 11
9.0673605987
 21
-7.0078236164
 31
0.0
  0
LINE
  5
CF
330
1F
100
AcDbEntity
  8
0
  6
Continuous
 62
     7
370
    25
100
AcDbLine
 10
7.4916952055
 20
1.9245719178
 30
0.0
 11
8.2147688356
 21
0.8549122432
 31
0.0
  0
LINE
  5
D0
330
1F
100
AcDbEntity
  8
0
  6
Continuous
 62
     7
370
    25
100
AcDbLine
 10
7.4359696062
 20
0.1984375
 30
0.0
 11
7.3802440068
 21
0.2772688356
 31
0.0
  0
LINE
  5
D1
330
1F
100
AcDbEntity
  8
0
  6
Continuous
 62
     7
370
    25
100
AcDbLine
 10
7.3802440068
 20
0.2772688356
 30
0.0
 11
6.3078660103
 21
1.8022474315
 31
0.0
  0
LINE
  5
D2
330
1F
100
AcDbEntity
  8
0
  6
Continuous
 62
     7
370
    25
100
AcDbLine
 10
6.3078660103
 20
1.8022474315
 30
0.0
 11
5.7968214897
 21
0.5844392123
 31
0.0
  0
LINE
  5
D3
330
1F
100
AcDbEntity
  8
0
  6
Continuous
 62
     7
370
    25
100
AcDbLine
 10
4.6836686644
 20
0.7176369863
 30
0.0
 11
4.7353167808
 21
0.8399614726
 31
0.0
  0
LINE
  5
D4
330
1F
100
AcDbEntity
  8
0
  6
Continuous
 62
     7
370
    25
100
AcDbLine
 10
4.7353167808
 20
0.8399614726
 30
0.0
 11
6.714255137
 21
5.6323630137
 31
0.0
  0
LINE
  5
D5
330
1F
100
AcDbEntity
  8
0
  6
Continuous
 62
     7
370
    25
100
AcDbLine
 10
6.714255137
 20
5.6323630137
 30
0.0
 11
6.7645440925
 21
5.7546875
 31
0.0
  0
LINE
  5
D6
330
1F
100
AcDbEntity
  8
0
  6
Continuous
 62
     7
370
    25
100
AcDbLine
 10
7.8409995719
 20
5.5059610445
 30
0.0
 11
7.7879922945
 21
5.3809182363
 31
0.0
  0
LINE
  5
D7
330
1F
100
AcDbEntity
  8
0
  6
Continuous
 62
     7
370
    25
100
AcDbLine
 10
7.7879922945
 20
5.3809182363
 30
0.0
 11
6.5878531678
 21
2.4831870719
 31
0.0
  0
LINE
  5
D8
330
1F
100
AcDbEntity
  8
0
  6
Continuous
 62
     7
370
    25
100
AcDbLine
 10
6.5878531678
 20
2.4831870719
 30
0.0
 11
7.6153788527
 21
3.2429580479
 31
0.0
  0
LINE
  5
D9
330
1F
100
AcDbEntity
  8
0
  6
Continuous
 62
     7
370
    25
100
AcDbLine
 10
8.2745719178
 20
2.4967786815
 30
0.0
 11
8.169916524
 21
2.4206656678
 31
0.0
  0
LINE
  5
DA
330
1F
100
AcDbEntity
  8
0
  6
Continuous
 62
     7
370
    25
100
AcDbLine
 10
8.169916524
 20
2.4206656678
 30
0.0
 11
7.4916952055
 21
1.9245719178
 31
0.0
  0
LINE
  5
DB
330
1F
100
AcDbEntity
  8
0
  6
Continuous
 62
     7
370
    25
100
AcDbLine
 10
2.4111515411
 20
1.3319777397
 30
0.0
 11
2.7210402397
 21
2.0767979452
 31
0.0
  0
LINE
  5
DC
330
1F
100
AcDbEntity
  8
0
  6
Continuous
 62
     7
370
    25
100
AcDbLine
 10
1.8117615582
 20
1.0438356164
 30
0.0
 11
1.9272902397
 21
1.0438356164
 31
0.0
  0
LINE
  5
DD
330
1F
100
AcDbEntity
  8
0
  6
Continuous
 62
     7
370
    25
100
AcDbLine
 10
3.4767337329
 20
1.0438356164
 30
0.0
 11
3.9823416096
 21
1.0438356164
 31
0.0
  0
LINE
  5
DE
330
1F
100
AcDbEntity
  8
0
  6
Continuous
 62
     7
370
    25
100
AcDbLine
 10
3.7852632705
 20
0.0
 30
0.0
 11
3.1981057363
 21
0.0
 31
0.0
  0
LINE
  5
DF
330
1F
100
AcDbEntity
  8
0
  6
Continuous
 62
     7
370
    25
100
AcDbLine
 10
1.9952482877
 20
0.0
 30
0.0
 11
1.4733304795
 21
0.0
 31
0.0
  0
LINE
  5
E0
330
1F
100
AcDbEntity
  8
0
  6
Continuous
 62
     7
370
    25
100
AcDbLine
 10
4.1889340753
 20
2.7495826199
 30
0.0
 11
4.1386451199
 21
2.6286172945
 31
0.0
  0
LINE
  5
E1
330
1F
100
AcDbEntity
  8
0
  6
Continuous
 62
     7
370
    25
100
AcDbLine
 10
4.1386451199
 20
2.6286172945
 30
0.0
 11
3.4767337329
 21
1.0438356164
 31
0.0
  0
LINE
  5
E2
330
1F
100
AcDbEntity
  8
0
  6
Continuous
 62
     7
370
    25
100
AcDbLine
 10
-2.0727204623
 20
1.9952482877
 30
0.0
 11
-2.3730950342
 21
1.2830479452
 31
0.0
  0
LINE
  5
E3
330
1F
100
AcDbEntity
  8
0
  6
Continuous
 62
     7
370
    25
100
AcDbLine
 10
-2.7482234589
 20
0.3547410103
 30
0.0
 11
-3.9537992295
 21
-2.5334760274
 31
0.0
  0
LINE
  5
E4
330
1F
100
AcDbEntity
  8
0
  6
Continuous
 62
     7
370
    25
100
AcDbLine
 10
-5.0166630993
 20
-2.2997003425
 30
0.0
 11
-2.7944349315
 21
3.0730629281
 31
0.0
  0
LINE
  5
E5
330
1F
100
AcDbEntity
  8
0
  6
Continuous
 62
     7
370
    25
100
AcDbLine
 10
-6.1610766267
 20
1.9952482877
 30
0.0
 11
-6.4614511986
 21
1.2830479452
 31
0.0
  0
LINE
  5
E6
330
1F
100
AcDbEntity
  8
0
  6
Continuous
 62
     7
370
    25
100
AcDbLine
 10
-6.8365796233
 20
0.3547410103
 30
0.0
 11
-8.0421553938
 21
-2.5334760274
 31
0.0
  0
LINE
  5
E7
330
1F
100
AcDbEntity
  8
0
  6
Continuous
 62
     7
370
    25
100
AcDbLine
 10
-9.1050192637
 20
-2.2997003425
 30
0.0
 11
-6.8827910959
 21
3.0730629281
 31
0.0
  0
ARC
  5
E8
330
1F
100
AcDbEntity
  8
0
  6
Continuous
 62
     7
370
    25
100
AcDbCircle
 10
9.0673605987
 20
5.4203236164
 30
0.0
 40
3.175000000000006
100
AcDbArc
 50
0.0
 51
90.0
  0
ARC
  5
E9
330
1F
100
AcDbEntity
  8
0
  6
Continuous
 62
     7
370
    25
100
AcDbCircle
 10
-9.0673605987
 20
5.4203236164
 30
0.0
 40
3.175000000000001
100
AcDbArc
 50
90.0
 51
180.0
  0
ARC
  5
EA
330
1F
100
AcDbEntity
  8
0
  6
Continuous
 62
     7
370
    25
100
AcDbCircle
 10
-9.0673605987
 20
-2.2453236164
 30
0.0
 40
3.174999999999999
100
AcDbArc
 50
180.0
 51
270.0
  0
ARC
  5
EB
330
1F
100
AcDbEntity
  8
0
  6
Continuous
 62
     7
370
    25
100
AcDbCircle
 10
9.0673605987
 20
-2.2453236164
 30
0.0
 40
3.175000000000001
100
AcDbArc
 50
270.0
 51
0.0
  0
ARC
  5
EC
330
1F
100
AcDbEntity
  8
0
  6
Continuous
 62
     7
370
    25
100
AcDbCircle
 10
-9.0673605987
 20
5.4203236164
 30
0.0
 40
4.762499999999994
100
AcDbArc
 50
90.0
 51
180.0
  0
ARC
  5
ED
330
1F
100
AcDbEntity
  8
0
  6
Continuous
 62
     7
370
    25
100
AcDbCircle
 10
9.0673605987
 20
5.4203236164
 30
0.0
 40
4.762499999999994
100
AcDbArc
 50
0.0
 51
90.0
  0
ARC
  5
EE
330
1F
100
AcDbEntity
  8
0
  6
Continuous
 62
     7
370
    25
100
AcDbCircle
 10
9.0673605987
 20
-2.2453236164
 30
0.0
 40
4.762499999999994
100
AcDbArc
 50
270.0
 51
0.0
  0
ARC
  5
EF
330
1F
100
AcDbEntity
  8
0
  6
Continuous
 62
     7
370
    25
100
AcDbCircle
 10
-9.0673605987
 20
-2.2453236164
 30
0.0
 40
4.762499999999996
100
AcDbArc
 50
180.0
 51
270.0
  0
MTEXT
  5
F1
330
1F
100
AcDbEntity
  8
0
  6
Continuous
 62
     7
100
AcDbMText
 10
-13.8298605987
 20
-8.027390008
 30
0.0
 40
4.83362
 41
0.0
 71
     1
 72
     1
  1
SOLIDWORKS Educational Product.
  7
SLDTEXTSTYLE0
 73
     1
 44
1.0
  0
MTEXT
  5
F2
330
1F
100
AcDbEntity
  8
0
  6
Continuous
 62
     7
100
AcDbMText
 10
-13.8298605987
 20
-15.277820008
 30
0.0
 40
4.83362
 41
0.0
 71
     1
 72
     1
  1
For Instructional Use Only.
  7
SLDTEXTSTYLE0
 73
     1
 44
1.0
  0
ENDSEC
  0
SECTION
  2
OBJECTS
  0
DICTIONARY
  5
C
330
0
100
AcDbDictionary
281
     1
  3
ACAD_GROUP
350
D
  3
ACAD_LAYOUT
350
1A
  3
ACAD_MLINESTYLE
350
17
  3
ACAD_PLOTSETTINGS
350
19
  3
ACAD_PLOTSTYLENAME
350
E
  3
ACAD_SCALELIST
350
47
  3
DWGPROPS
350
F3
  0
DICTIONARY
  5
D
102
{ACAD_REACTORS
330
C
102
}
330
C
100
AcDbDictionary
281
     1
  0
DICTIONARY
  5
1A
102
{ACAD_REACTORS
330
C
102
}
330
C
100
AcDbDictionary
281
     1
  3
Layout1
350
1E
  3
Layout2
350
26
  3
Model
350
22
  0
DICTIONARY
  5
17
102
{ACAD_REACTORS
330
C
102
}
330
C
100
AcDbDictionary
281
     1
  3
Standard
350
18
  0
DICTIONARY
  5
19
102
{ACAD_REACTORS
330
C
102
}
330
C
100
AcDbDictionary
281
     1
  0
ACDBDICTIONARYWDFLT
  5
E
102
{ACAD_REACTORS
330
C
102
}
330
C
100
AcDbDictionary
281
     1
  3
Normal
350
F
100
AcDbDictionaryWithDefault
340
F
  0
DICTIONARY
  5
47
102
{ACAD_REACTORS
330
C
102
}
330
C
100
AcDbDictionary
281
     1
  3
A0
350
48
  3
A1
350
49
  3
A2
350
4A
  3
A3
350
4B
  3
A4
350
4C
  3
A5
350
4D
  3
A6
350
4E
  3
A7
350
4F
  3
A8
350
50
  3
A9
350
51
  3
B0
350
52
  3
B1
350
53
  3
B2
350
54
  3
B3
350
55
  3
B4
350
56
  3
B5
350
57
  3
B6
350
58
  0
XRECORD
  5
F3
102
{ACAD_REACTORS
330
C
102
}
330
C
100
AcDbXrecord
280
     1
  1
DWGPROPS COOKIE
  2

  3

  4

  6

  7

  8
ppak1
  9

300
=
301
=
302
=
303
=
304
=
305
=
306
=
307
=
308
=
309
=
 40
0.0
 41
2460631.818935949
 42
2460631.818985648
  1

 90
        0
  0
LAYOUT
  5
1E
102
{ACAD_REACTORS
330
1A
102
}
330
1A
100
AcDbPlotSettings
  1

  2
none_device
  4

  6

 40
0.0
 41
0.0
 42
0.0
 43
0.0
 44
0.0
 45
0.0
 46
0.0
 47
0.0
 48
0.0
 49
0.0
140
0.0
141
0.0
142
1.0
143
1.0
 70
   688
 72
     1
 73
     0
 74
     5
  7

 75
    16
147
1.0
148
0.0
149
0.0
100
AcDbLayout
  1
Layout1
 70
     1
 71
     1
 10
0.0
 20
0.0
 11
420.0
 21
297.0
 12
0.0
 22
0.0
 32
0.0
 14
1.0000000000E+20
 24
1.0000000000E+20
 34
1.0000000000E+20
 15
-1.0000000000E+20
 25
-1.0000000000E+20
 35
-1.0000000000E+20
146
0.0
 13
0.0
 23
0.0
 33
0.0
 16
1.0
 26
0.0
 36
0.0
 17
0.0
 27
1.0
 37
0.0
 76
     0
330
1B
  0
LAYOUT
  5
26
102
{ACAD_REACTORS
330
1A
102
}
330
1A
100
AcDbPlotSettings
  1

  2
none_device
  4

  6

 40
0.0
 41
0.0
 42
0.0
 43
0.0
 44
0.0
 45
0.0
 46
0.0
 47
0.0
 48
0.0
 49
0.0
140
0.0
141
0.0
142
1.0
143
1.0
 70
   688
 72
     1
 73
     0
 74
     5
  7

 75
    16
147
1.0
148
0.0
149
0.0
100
AcDbLayout
  1
Layout2
 70
     1
 71
     2
 10
0.0
 20
0.0
 11
0.0
 21
0.0
 12
0.0
 22
0.0
 32
0.0
 14
0.0
 24
0.0
 34
0.0
 15
0.0
 25
0.0
 35
0.0
146
0.0
 13
0.0
 23
0.0
 33
0.0
 16
1.0
 26
0.0
 36
0.0
 17
0.0
 27
1.0
 37
0.0
 76
     0
330
23
  0
LAYOUT
  5
22
102
{ACAD_REACTORS
330
1A
102
}
330
1A
100
AcDbPlotSettings
  1

  2
none_device
  4
ANSI_A_(11.00_x_8.50_Inches)
  6

 40
6.35
 41
19.05
 42
6.35000508
 43
19.05000254
 44
279.4
 45
215.9
 46
133.34999746
 47
73.0244943507
 48
0.0
 49
0.0
140
0.0
141
0.0
142
0.393713296
143
1.0
 70
  1696
 72
     0
 73
     0
 74
     0
  7

 75
     0
147
0.0179189148
148
-1300.4909072572
149
0.0
100
AcDbLayout
  1
Model
 70
     1
 71
     0
 10
0.0
 20
0.0
 11
420.0
 21
297.0
 12
0.0
 22
0.0
 32
0.0
 14
-13.8298605987
 24
-7.0078236164
 34
0.0
 15
13.8298605987
 25
10.1828236164
 35
0.0
146
0.0
 13
0.0
 23
0.0
 33
0.0
 16
1.0
 26
0.0
 36
0.0
 17
0.0
 27
1.0
 37
0.0
 76
     0
330
1F
331
29
  0
MLINESTYLE
  5
18
102
{ACAD_REACTORS
330
17
102
}
330
17
100
AcDbMlineStyle
  2
Standard
 70
     0
  3

 62
   256
 51
90.0
 52
90.0
 71
     2
 49
0.5
 62
   256
  6
BYLAYER
 49
-0.5
 62
   256
  6
BYLAYER
  0
ACDBPLACEHOLDER
  5
F
102
{ACAD_REACTORS
330
E
102
}
330
E
  0
SCALE
  5
48
102
{ACAD_REACTORS
330
47
102
}
330
47
100
AcDbScale
 70
     0
300
1:1
140
1.0
141
1.0
290
     1
  0
SCALE
  5
49
102
{ACAD_REACTORS
330
47
102
}
330
47
100
AcDbScale
 70
     0
300
1:2
140
1.0
141
2.0
290
     0
  0
SCALE
  5
4A
102
{ACAD_REACTORS
330
47
102
}
330
47
100
AcDbScale
 70
     0
300
1:4
140
1.0
141
4.0
290
     0
  0
SCALE
  5
4B
102
{ACAD_REACTORS
330
47
102
}
330
47
100
AcDbScale
 70
     0
300
1:5
140
1.0
141
5.0
290
     0
  0
SCALE
  5
4C
102
{ACAD_REACTORS
330
47
102
}
330
47
100
AcDbScale
 70
     0
300
1:8
140
1.0
141
8.0
290
     0
  0
SCALE
  5
4D
102
{ACAD_REACTORS
330
47
102
}
330
47
100
AcDbScale
 70
     0
300
1:10
140
1.0
141
10.0
290
     0
  0
SCALE
  5
4E
102
{ACAD_REACTORS
330
47
102
}
330
47
100
AcDbScale
 70
     0
300
1:16
140
1.0
141
16.0
290
     0
  0
SCALE
  5
4F
102
{ACAD_REACTORS
330
47
102
}
330
47
100
AcDbScale
 70
     0
300
1:20
140
1.0
141
20.0
290
     0
  0
SCALE
  5
50
102
{ACAD_REACTORS
330
47
102
}
330
47
100
AcDbScale
 70
     0
300
1:30
140
1.0
141
30.0
290
     0
  0
SCALE
  5
51
102
{ACAD_REACTORS
330
47
102
}
330
47
100
AcDbScale
 70
     0
300
1:40
140
1.0
141
40.0
290
     0
  0
SCALE
  5
52
102
{ACAD_REACTORS
330
47
102
}
330
47
100
AcDbScale
 70
     0
300
1:50
140
1.0
141
50.0
290
     0
  0
SCALE
  5
53
102
{ACAD_REACTORS
330
47
102
}
330
47
100
AcDbScale
 70
     0
300
1:100
140
1.0
141
100.0
290
     0
  0
SCALE
  5
54
102
{ACAD_REACTORS
330
47
102
}
330
47
100
AcDbScale
 70
     0
300
2:1
140
2.0
141
1.0
290
     0
  0
SCALE
  5
55
102
{ACAD_REACTORS
330
47
102
}
330
47
100
AcDbScale
 70
     0
300
4:1
140
4.0
141
1.0
290
     0
  0
SCALE
  5
56
102
{ACAD_REACTORS
330
47
102
}
330
47
100
AcDbScale
 70
     0
300
8:1
140
8.0
141
1.0
290
     0
  0
SCALE
  5
57
102
{ACAD_REACTORS
330
47
102
}
330
47
100
AcDbScale
 70
     0
300
10:1
140
10.0
141
1.0
290
     0
  0
SCALE
  5
58
102
{ACAD_REACTORS
330
47
102
}
330
47
100
AcDbScale
 70
     0
300
100:1
140
100.0
141
1.0
290
     0
  0
ENDSEC
  0
EOF
